<mxfile host="app.diagrams.net" agent="Mozilla/5.0 (Windows NT 10.0; Win64; x64) AppleWebKit/537.36 (KHTML, like Gecko) Chrome/126.0.0.0 YaBrowser/24.7.0.0 Safari/537.36" version="24.8.0">
  <diagram name="Page-0" id="Page-0">
    <mxGraphModel dx="746" dy="503" grid="1" gridSize="5" guides="1" tooltips="1" connect="1" arrows="1" fold="1" page="1" pageScale="1" pageWidth="1657.35" pageHeight="1075.27" background="#ffffff" math="0" shadow="0">
      <root>
        <mxCell id="0" />
        <mxCell id="1" parent="0" />
        <mxCell id="FJFjf5WjBDoC7LGonaVu-305" style="edgeStyle=orthogonalEdgeStyle;shape=connector;rounded=0;orthogonalLoop=1;jettySize=auto;html=1;exitX=1;exitY=0.1;exitDx=0;exitDy=0;exitPerimeter=0;strokeColor=#6c8ebf;align=center;verticalAlign=middle;fontFamily=Helvetica;fontSize=10;fontColor=default;labelBackgroundColor=default;resizable=0;endArrow=none;endFill=0;entryX=0.175;entryY=0.25;entryDx=0;entryDy=0;entryPerimeter=0;fillColor=#dae8fc;" parent="1" source="FJFjf5WjBDoC7LGonaVu-44" target="FJFjf5WjBDoC7LGonaVu-298" edge="1">
          <mxGeometry relative="1" as="geometry">
            <mxPoint x="957.6" y="245" as="targetPoint" />
            <Array as="points">
              <mxPoint x="920.1" y="290" />
              <mxPoint x="920.1" y="240" />
            </Array>
          </mxGeometry>
        </mxCell>
        <mxCell id="FJFjf5WjBDoC7LGonaVu-306" value="Funct3D&lt;sub&gt;0&lt;/sub&gt;" style="edgeLabel;html=1;align=left;verticalAlign=middle;resizable=0;points=[];fontFamily=Helvetica;fontSize=10;fontColor=#006AFF;labelBackgroundColor=none;fillColor=none;gradientColor=none;" parent="FJFjf5WjBDoC7LGonaVu-305" vertex="1" connectable="0">
          <mxGeometry x="-0.8471" relative="1" as="geometry">
            <mxPoint x="-16" y="-10" as="offset" />
          </mxGeometry>
        </mxCell>
        <mxCell id="FJFjf5WjBDoC7LGonaVu-307" value="&lt;span style=&quot;color: rgb(0, 106, 255);&quot;&gt;Funct3E&lt;/span&gt;&lt;sub style=&quot;color: rgb(0, 106, 255);&quot;&gt;0&lt;/sub&gt;" style="edgeLabel;html=1;align=left;verticalAlign=middle;resizable=0;points=[];fontFamily=Helvetica;fontSize=10;fontColor=default;labelBackgroundColor=none;fillColor=none;gradientColor=none;" parent="FJFjf5WjBDoC7LGonaVu-305" vertex="1" connectable="0">
          <mxGeometry x="-0.2339" y="1" relative="1" as="geometry">
            <mxPoint x="-34" y="-9" as="offset" />
          </mxGeometry>
        </mxCell>
        <mxCell id="FJFjf5WjBDoC7LGonaVu-60" value="" style="group;" parent="1" vertex="1" connectable="0">
          <mxGeometry x="440.1" y="270" width="40" height="200" as="geometry" />
        </mxCell>
        <mxCell id="FJFjf5WjBDoC7LGonaVu-186" style="edgeStyle=orthogonalEdgeStyle;shape=connector;rounded=0;orthogonalLoop=1;jettySize=auto;html=1;exitX=1;exitY=0.3;exitDx=0;exitDy=0;exitPerimeter=0;strokeColor=#b85450;align=center;verticalAlign=middle;fontFamily=Helvetica;fontSize=10;fontColor=default;labelBackgroundColor=default;resizable=0;endArrow=none;endFill=0;fillColor=#f8cecc;" parent="FJFjf5WjBDoC7LGonaVu-60" source="FJFjf5WjBDoC7LGonaVu-44" edge="1">
          <mxGeometry relative="1" as="geometry">
            <mxPoint x="465" y="600" as="targetPoint" />
          </mxGeometry>
        </mxCell>
        <mxCell id="FJFjf5WjBDoC7LGonaVu-225" value="ResultSrcE&lt;sub&gt;0&lt;/sub&gt;" style="edgeLabel;html=1;align=center;verticalAlign=middle;resizable=0;points=[];fontFamily=Helvetica;fontSize=10;fontColor=#FF0000;labelBackgroundColor=none;fillColor=none;gradientColor=none;horizontal=0;" parent="FJFjf5WjBDoC7LGonaVu-186" vertex="1" connectable="0">
          <mxGeometry x="0.9729" y="-1" relative="1" as="geometry">
            <mxPoint x="-8" y="-16" as="offset" />
          </mxGeometry>
        </mxCell>
        <mxCell id="FJFjf5WjBDoC7LGonaVu-192" style="edgeStyle=orthogonalEdgeStyle;shape=connector;rounded=0;orthogonalLoop=1;jettySize=auto;html=1;exitX=1;exitY=0.2;exitDx=0;exitDy=0;exitPerimeter=0;strokeColor=#b85450;align=center;verticalAlign=middle;fontFamily=Helvetica;fontSize=10;fontColor=default;labelBackgroundColor=default;resizable=0;endArrow=none;endFill=0;fillColor=#f8cecc;" parent="FJFjf5WjBDoC7LGonaVu-60" source="FJFjf5WjBDoC7LGonaVu-44" edge="1">
          <mxGeometry relative="1" as="geometry">
            <mxPoint x="690" y="600" as="targetPoint" />
            <Array as="points">
              <mxPoint x="690" y="40" />
              <mxPoint x="690" y="580" />
            </Array>
          </mxGeometry>
        </mxCell>
        <mxCell id="FJFjf5WjBDoC7LGonaVu-228" value="RegWriteM" style="edgeLabel;html=1;align=center;verticalAlign=middle;resizable=0;points=[];fontFamily=Helvetica;fontSize=10;fontColor=#FF0000;labelBackgroundColor=none;fillColor=none;gradientColor=none;horizontal=0;" parent="FJFjf5WjBDoC7LGonaVu-192" vertex="1" connectable="0">
          <mxGeometry x="0.985" y="-1" relative="1" as="geometry">
            <mxPoint x="-9" y="-19" as="offset" />
          </mxGeometry>
        </mxCell>
        <mxCell id="FJFjf5WjBDoC7LGonaVu-193" style="edgeStyle=orthogonalEdgeStyle;shape=connector;rounded=0;orthogonalLoop=1;jettySize=auto;html=1;exitX=1;exitY=0.2;exitDx=0;exitDy=0;exitPerimeter=0;strokeColor=#b85450;align=center;verticalAlign=middle;fontFamily=Helvetica;fontSize=10;fontColor=default;labelBackgroundColor=default;resizable=0;endArrow=none;endFill=0;fillColor=#f8cecc;" parent="FJFjf5WjBDoC7LGonaVu-60" source="FJFjf5WjBDoC7LGonaVu-44" edge="1">
          <mxGeometry relative="1" as="geometry">
            <mxPoint x="860" y="600" as="targetPoint" />
            <Array as="points">
              <mxPoint x="860" y="40" />
            </Array>
          </mxGeometry>
        </mxCell>
        <mxCell id="FJFjf5WjBDoC7LGonaVu-230" value="RegWriteW" style="edgeLabel;html=1;align=center;verticalAlign=middle;resizable=0;points=[];fontFamily=Helvetica;fontSize=10;fontColor=#FF0000;labelBackgroundColor=none;fillColor=none;gradientColor=none;horizontal=0;" parent="FJFjf5WjBDoC7LGonaVu-193" vertex="1" connectable="0">
          <mxGeometry x="0.9749" relative="1" as="geometry">
            <mxPoint x="-8" y="-13" as="offset" />
          </mxGeometry>
        </mxCell>
        <mxCell id="FJFjf5WjBDoC7LGonaVu-44" value="Блок&amp;nbsp; &amp;nbsp; &amp;nbsp;&amp;nbsp;&lt;div&gt;управления&lt;/div&gt;" style="rounded=1;whiteSpace=wrap;html=1;points=[[0,0.5,0,0,0],[0,0.7,0,0,0],[0,0.9,0,0,0],[1,0.1,0,0,0],[1,0.2,0,0,0],[1,0.3,0,0,0],[1,0.4,0,0,0],[1,0.5,0,0,0],[1,0.6,0,0,0],[1,0.7,0,0,0],[1,0.8,0,0,0],[1,0.9,0,0,0]];horizontal=0;fontStyle=1;fontSize=11;align=right;spacingTop=0;spacingRight=5;verticalAlign=middle;spacingLeft=0;fillColor=#dae8fc;strokeColor=#6c8ebf;" parent="FJFjf5WjBDoC7LGonaVu-60" vertex="1">
          <mxGeometry width="40" height="200" as="geometry" />
        </mxCell>
        <mxCell id="FJFjf5WjBDoC7LGonaVu-54" value="funct7&lt;sub&gt;5&lt;/sub&gt;" style="text;html=1;align=left;verticalAlign=middle;whiteSpace=wrap;rounded=0;points=[];fontSize=10;container=0;" parent="FJFjf5WjBDoC7LGonaVu-60" vertex="1">
          <mxGeometry x="3" y="172" width="15" height="15" as="geometry" />
        </mxCell>
        <mxCell id="FJFjf5WjBDoC7LGonaVu-55" value="funct3" style="text;html=1;align=left;verticalAlign=middle;whiteSpace=wrap;rounded=0;points=[];fontSize=10;container=0;" parent="FJFjf5WjBDoC7LGonaVu-60" vertex="1">
          <mxGeometry x="3" y="132" width="15" height="15" as="geometry" />
        </mxCell>
        <mxCell id="FJFjf5WjBDoC7LGonaVu-56" value="op" style="text;html=1;align=left;verticalAlign=middle;whiteSpace=wrap;rounded=0;points=[];fontSize=10;container=0;" parent="FJFjf5WjBDoC7LGonaVu-60" vertex="1">
          <mxGeometry x="3" y="92.5" width="15" height="15" as="geometry" />
        </mxCell>
        <mxCell id="FJFjf5WjBDoC7LGonaVu-172" style="edgeStyle=orthogonalEdgeStyle;rounded=0;orthogonalLoop=1;jettySize=auto;html=1;exitX=1;exitY=0.2;exitDx=0;exitDy=0;exitPerimeter=0;endArrow=none;endFill=0;fillColor=#f8cecc;strokeColor=#b85450;" parent="1" source="is0OGJ1ILdpOx4lDECwO-14" edge="1">
          <mxGeometry relative="1" as="geometry">
            <mxPoint x="345.1" y="535" as="sourcePoint" />
            <mxPoint x="580.1" y="870" as="targetPoint" />
            <Array as="points">
              <mxPoint x="410.1" y="530" />
              <mxPoint x="410.1" y="670" />
              <mxPoint x="580.1" y="670" />
            </Array>
          </mxGeometry>
        </mxCell>
        <mxCell id="FJFjf5WjBDoC7LGonaVu-216" value="Rs2D" style="edgeLabel;html=1;align=center;verticalAlign=middle;resizable=0;points=[];fontFamily=Helvetica;fontSize=10;fontColor=#FF0000;labelBackgroundColor=none;fillColor=none;gradientColor=none;horizontal=0;" parent="FJFjf5WjBDoC7LGonaVu-172" vertex="1" connectable="0">
          <mxGeometry x="0.9493" y="2" relative="1" as="geometry">
            <mxPoint x="-12" y="-1" as="offset" />
          </mxGeometry>
        </mxCell>
        <mxCell id="k0FuWcHoHuVSy__6cpUw-7" value="&lt;font style=&quot;font-size: 14px;&quot;&gt;Блок предотвращения конфликтов&lt;/font&gt;" style="rounded=1;whiteSpace=wrap;html=1;fontStyle=1;points=[[0.09,0,0,0,0],[0.18,0,0,0,0],[0.27,0,0,0,0],[0.36,0,0,0,0],[0.45,0,0,0,0],[0.55,0,0,0,0],[0.64,0,0,0,0],[0.73,0,0,0,0],[0.82,0,0,0,0],[0.91,0,0,0,0]];fillColor=#f8cecc;strokeColor=#b85450;" parent="1" vertex="1">
          <mxGeometry x="199.75" y="870" width="1119.96" height="30" as="geometry" />
        </mxCell>
        <mxCell id="-DspEDwFLZWsZTNbwFcD-6" value="&lt;font style=&quot;font-size: 10px;&quot;&gt;0&amp;nbsp;&amp;nbsp;&lt;/font&gt;&lt;div style=&quot;font-size: 10px;&quot;&gt;&lt;font style=&quot;font-size: 10px;&quot;&gt;1&amp;nbsp;&amp;nbsp;&lt;/font&gt;&lt;/div&gt;" style="shape=trapezoid;perimeter=trapezoidPerimeter;whiteSpace=wrap;html=1;fixedSize=1;points=[[0.08,0.5,0,0,0],[0.25,1,0,0,0],[0.5,0,0,0,0],[0.75,1,0,0,0]];rotation=90;size=6;horizontal=0;strokeWidth=2;fontSize=10;" parent="1" vertex="1">
          <mxGeometry x="159.75" y="520.15" width="40.39" height="19.7" as="geometry" />
        </mxCell>
        <mxCell id="is0OGJ1ILdpOx4lDECwO-10" style="rounded=0;orthogonalLoop=1;jettySize=auto;html=1;exitX=0.5;exitY=0;exitDx=0;exitDy=0;exitPerimeter=0;entryX=0;entryY=0.5;entryDx=0;entryDy=0;entryPerimeter=0;endArrow=none;endFill=0;startArrow=none;startFill=0;edgeStyle=orthogonalEdgeStyle;" parent="1" source="-DspEDwFLZWsZTNbwFcD-6" target="is0OGJ1ILdpOx4lDECwO-4" edge="1">
          <mxGeometry relative="1" as="geometry" />
        </mxCell>
        <mxCell id="is0OGJ1ILdpOx4lDECwO-46" value="&lt;font style=&quot;font-size: 10px;&quot;&gt;PCF`&lt;/font&gt;" style="edgeLabel;html=1;align=center;verticalAlign=middle;resizable=0;points=[];fontSize=10;labelBackgroundColor=none;" parent="is0OGJ1ILdpOx4lDECwO-10" vertex="1" connectable="0">
          <mxGeometry x="-0.1897" relative="1" as="geometry">
            <mxPoint x="3" y="-8" as="offset" />
          </mxGeometry>
        </mxCell>
        <mxCell id="is0OGJ1ILdpOx4lDECwO-16" value="" style="group" parent="1" vertex="1" connectable="0">
          <mxGeometry x="220.1" y="510" width="20" height="45" as="geometry" />
        </mxCell>
        <mxCell id="is0OGJ1ILdpOx4lDECwO-4" value="" style="rounded=0;whiteSpace=wrap;html=1;strokeWidth=2;points=[[0,0.5,0,0,0],[0.5,0,0,0,0],[1,0.5,0,0,0]];" parent="is0OGJ1ILdpOx4lDECwO-16" vertex="1">
          <mxGeometry width="20" height="40" as="geometry" />
        </mxCell>
        <mxCell id="is0OGJ1ILdpOx4lDECwO-6" value="" style="triangle;whiteSpace=wrap;html=1;rotation=90;fontColor=default;labelBorderColor=none;perimeterSpacing=0;strokeColor=default;rounded=0;shadow=0;points=[[0,0.5,0,0,0]];" parent="is0OGJ1ILdpOx4lDECwO-16" vertex="1">
          <mxGeometry x="5" y="-5" width="10" height="20" as="geometry" />
        </mxCell>
        <mxCell id="is0OGJ1ILdpOx4lDECwO-7" value="EN" style="text;html=1;align=center;verticalAlign=middle;whiteSpace=wrap;rounded=0;rotation=-90;fontSize=8;points=[];" parent="is0OGJ1ILdpOx4lDECwO-16" vertex="1">
          <mxGeometry y="27" width="12.5" height="10" as="geometry" />
        </mxCell>
        <mxCell id="is0OGJ1ILdpOx4lDECwO-8" value="" style="ellipse;whiteSpace=wrap;html=1;aspect=fixed;points=[[0.5,1,0,0,0]];" parent="is0OGJ1ILdpOx4lDECwO-16" vertex="1">
          <mxGeometry x="3.75" y="40" width="5" height="5" as="geometry" />
        </mxCell>
        <mxCell id="is0OGJ1ILdpOx4lDECwO-43" value="+" style="shape=stencil(pZNNDoMgEIVPwx6hNumyoe2yd0DFSkQwQLW9feXHpNZoGk3YzHvD94ZkAJiYirYMIChpwwC+AISMZTLn4u4EhAarCnoCYaj7UKexpKZluQ1aRzWnmYgXjdWqZj0vbERwWTHNrXPxFcDz0OMOJhnN64dWT1lMjNFuqSPMjNFuVOee8Aohcaz3pALotgIQXH4B0ikh2Y84bUD8DrEbcdxAQOkEke4e4vAXIRfKsMUuTAZ9thJeXdgjTEql2cqClVyIsK0rqYsNPnqW4NXwvbzwAQ==);whiteSpace=wrap;html=1;strokeWidth=2;fontSize=15;points=[[0,0.22,0,0,0],[0,0.8,0,0,0],[1,0.5,0,0,0]];fontStyle=1;verticalAlign=middle;align=right;spacingRight=0;" parent="1" vertex="1">
          <mxGeometry x="290.1" y="650" width="30" height="60" as="geometry" />
        </mxCell>
        <mxCell id="is0OGJ1ILdpOx4lDECwO-48" style="edgeStyle=orthogonalEdgeStyle;rounded=0;orthogonalLoop=1;jettySize=auto;html=1;exitX=1;exitY=0.5;exitDx=0;exitDy=0;exitPerimeter=0;entryX=0;entryY=0.2;entryDx=0;entryDy=0;entryPerimeter=0;endArrow=none;endFill=0;" parent="1" source="is0OGJ1ILdpOx4lDECwO-4" target="is0OGJ1ILdpOx4lDECwO-14" edge="1">
          <mxGeometry relative="1" as="geometry" />
        </mxCell>
        <mxCell id="is0OGJ1ILdpOx4lDECwO-49" value="PCF" style="edgeLabel;html=1;align=center;verticalAlign=middle;resizable=0;points=[];fontSize=10;labelBackgroundColor=none;" parent="is0OGJ1ILdpOx4lDECwO-48" vertex="1" connectable="0">
          <mxGeometry x="0.0468" y="3" relative="1" as="geometry">
            <mxPoint x="-1" y="-5" as="offset" />
          </mxGeometry>
        </mxCell>
        <mxCell id="is0OGJ1ILdpOx4lDECwO-53" style="edgeStyle=orthogonalEdgeStyle;rounded=0;orthogonalLoop=1;jettySize=auto;html=1;exitX=1;exitY=0.5;exitDx=0;exitDy=0;exitPerimeter=0;entryX=0;entryY=0.22;entryDx=0;entryDy=0;entryPerimeter=0;endArrow=none;endFill=0;" parent="1" source="is0OGJ1ILdpOx4lDECwO-4" target="is0OGJ1ILdpOx4lDECwO-43" edge="1">
          <mxGeometry relative="1" as="geometry">
            <Array as="points">
              <mxPoint x="260.1" y="530" />
              <mxPoint x="260.1" y="663" />
            </Array>
          </mxGeometry>
        </mxCell>
        <mxCell id="is0OGJ1ILdpOx4lDECwO-55" style="edgeStyle=orthogonalEdgeStyle;rounded=0;orthogonalLoop=1;jettySize=auto;html=1;exitX=1;exitY=0.5;exitDx=0;exitDy=0;exitPerimeter=0;entryX=0.25;entryY=1;entryDx=0;entryDy=0;entryPerimeter=0;endArrow=none;endFill=0;" parent="1" source="is0OGJ1ILdpOx4lDECwO-43" target="-DspEDwFLZWsZTNbwFcD-6" edge="1">
          <mxGeometry relative="1" as="geometry">
            <Array as="points">
              <mxPoint x="340.1" y="680" />
              <mxPoint x="340.1" y="740" />
              <mxPoint x="160.1" y="740" />
              <mxPoint x="160.1" y="520" />
            </Array>
          </mxGeometry>
        </mxCell>
        <mxCell id="is0OGJ1ILdpOx4lDECwO-59" value="PCPlus4F" style="edgeLabel;html=1;align=center;verticalAlign=middle;resizable=0;points=[];fontSize=10;labelBackgroundColor=none;" parent="is0OGJ1ILdpOx4lDECwO-55" vertex="1" connectable="0">
          <mxGeometry x="-0.5989" y="-1" relative="1" as="geometry">
            <mxPoint x="-14" y="-7" as="offset" />
          </mxGeometry>
        </mxCell>
        <mxCell id="is0OGJ1ILdpOx4lDECwO-56" value="4" style="text;html=1;align=center;verticalAlign=middle;whiteSpace=wrap;rounded=0;points=[[1,0.5,0,0,0]];fontSize=11;" parent="1" vertex="1">
          <mxGeometry x="260.1" y="690" width="15" height="15" as="geometry" />
        </mxCell>
        <mxCell id="is0OGJ1ILdpOx4lDECwO-57" style="edgeStyle=orthogonalEdgeStyle;rounded=0;orthogonalLoop=1;jettySize=auto;html=1;exitX=1;exitY=0.5;exitDx=0;exitDy=0;exitPerimeter=0;entryX=0;entryY=0.8;entryDx=0;entryDy=0;entryPerimeter=0;endArrow=none;endFill=0;" parent="1" source="is0OGJ1ILdpOx4lDECwO-56" target="is0OGJ1ILdpOx4lDECwO-43" edge="1">
          <mxGeometry relative="1" as="geometry" />
        </mxCell>
        <mxCell id="is0OGJ1ILdpOx4lDECwO-60" value="&lt;p style=&quot;line-height: 120%; font-size: 11px;&quot;&gt;&lt;font style=&quot;font-size: 11px;&quot;&gt;Расширение знака&lt;/font&gt;&lt;/p&gt;" style="shape=manualInput;whiteSpace=wrap;html=1;size=13;fontSize=11;spacingTop=10;strokeWidth=2;points=[[0,0.69,0,0,0],[0.5,0.17,0,0,0],[1,0.5,0,0,0]];fontStyle=1" parent="1" vertex="1">
          <mxGeometry x="440.1" y="695" width="105" height="35" as="geometry" />
        </mxCell>
        <mxCell id="is0OGJ1ILdpOx4lDECwO-86" style="edgeStyle=orthogonalEdgeStyle;rounded=0;orthogonalLoop=1;jettySize=auto;html=1;entryX=1;entryY=0.2;entryDx=0;entryDy=0;entryPerimeter=0;exitX=0.25;exitY=1;exitDx=0;exitDy=0;exitPerimeter=0;endArrow=none;endFill=0;" parent="1" source="FJFjf5WjBDoC7LGonaVu-102" target="is0OGJ1ILdpOx4lDECwO-62" edge="1">
          <mxGeometry relative="1" as="geometry">
            <mxPoint x="705.1" y="540" as="sourcePoint" />
          </mxGeometry>
        </mxCell>
        <mxCell id="FJFjf5WjBDoC7LGonaVu-204" value="RD1D" style="edgeLabel;html=1;align=left;verticalAlign=middle;resizable=0;points=[];fontFamily=Helvetica;fontSize=10;fontColor=default;labelBackgroundColor=none;fillColor=none;gradientColor=none;" parent="is0OGJ1ILdpOx4lDECwO-86" vertex="1" connectable="0">
          <mxGeometry x="0.5236" y="-3" relative="1" as="geometry">
            <mxPoint x="-18" y="-7" as="offset" />
          </mxGeometry>
        </mxCell>
        <mxCell id="FJFjf5WjBDoC7LGonaVu-206" value="RD1E" style="edgeLabel;html=1;align=left;verticalAlign=middle;resizable=0;points=[];fontFamily=Helvetica;fontSize=10;fontColor=default;labelBackgroundColor=none;fillColor=none;gradientColor=none;" parent="is0OGJ1ILdpOx4lDECwO-86" vertex="1" connectable="0">
          <mxGeometry x="-0.1039" y="-3" relative="1" as="geometry">
            <mxPoint x="-16" y="-7" as="offset" />
          </mxGeometry>
        </mxCell>
        <mxCell id="FJFjf5WjBDoC7LGonaVu-30" style="edgeStyle=orthogonalEdgeStyle;rounded=0;orthogonalLoop=1;jettySize=auto;html=1;exitX=1;exitY=0.5;exitDx=0;exitDy=0;exitPerimeter=0;entryX=0;entryY=0.4;entryDx=0;entryDy=0;entryPerimeter=0;endArrow=none;endFill=0;" parent="1" source="is0OGJ1ILdpOx4lDECwO-88" target="FJFjf5WjBDoC7LGonaVu-10" edge="1">
          <mxGeometry relative="1" as="geometry">
            <mxPoint x="1010.0999999999999" y="549.98" as="targetPoint" />
          </mxGeometry>
        </mxCell>
        <mxCell id="is0OGJ1ILdpOx4lDECwO-88" value="АЛУ" style="shape=stencil(pZNNDoMgEIVPwx6hNumyoe2yd0DFSkQwQLW9feXHpNZoGk3YzHvD94ZkAJiYirYMIChpwwC+AISMZTLn4u4EhAarCnoCYaj7UKexpKZluQ1aRzWnmYgXjdWqZj0vbERwWTHNrXPxFcDz0OMOJhnN64dWT1lMjNFuqSPMjNFuVOee8Aohcaz3pALotgIQXH4B0ikh2Y84bUD8DrEbcdxAQOkEke4e4vAXIRfKsMUuTAZ9thJeXdgjTEql2cqClVyIsK0rqYsNPnqW4NXwvbzwAQ==);whiteSpace=wrap;html=1;strokeWidth=2;fontSize=11;points=[[0,0.22,0,0,0],[0,0.8,0,0,0],[0.5,0.05,0,0,0],[1,0.25,0,0,0],[1,0.5,0,0,0]];horizontal=0;align=center;verticalAlign=bottom;spacing=0;fontStyle=1" parent="1" vertex="1">
          <mxGeometry x="915.1" y="519.98" width="30" height="60" as="geometry" />
        </mxCell>
        <mxCell id="FJFjf5WjBDoC7LGonaVu-29" style="edgeStyle=orthogonalEdgeStyle;rounded=0;orthogonalLoop=1;jettySize=auto;html=1;exitX=0.5;exitY=0;exitDx=0;exitDy=0;exitPerimeter=0;entryX=0;entryY=0.8;entryDx=0;entryDy=0;entryPerimeter=0;endArrow=none;endFill=0;" parent="1" source="FJFjf5WjBDoC7LGonaVu-104" target="FJFjf5WjBDoC7LGonaVu-10" edge="1">
          <mxGeometry relative="1" as="geometry">
            <mxPoint x="990.16" y="589.98" as="targetPoint" />
            <mxPoint x="806.4150000000001" y="580.8300000000004" as="sourcePoint" />
            <Array as="points">
              <mxPoint x="820.1" y="580" />
              <mxPoint x="820.1" y="590" />
            </Array>
          </mxGeometry>
        </mxCell>
        <mxCell id="FJFjf5WjBDoC7LGonaVu-155" value="WriteDataM" style="edgeLabel;html=1;align=center;verticalAlign=middle;resizable=0;points=[];fontFamily=Helvetica;fontSize=10;fontColor=default;labelBackgroundColor=none;fillColor=none;gradientColor=none;" parent="FJFjf5WjBDoC7LGonaVu-29" vertex="1" connectable="0">
          <mxGeometry x="0.4698" y="5" relative="1" as="geometry">
            <mxPoint x="40" y="-3" as="offset" />
          </mxGeometry>
        </mxCell>
        <mxCell id="is0OGJ1ILdpOx4lDECwO-90" style="edgeStyle=orthogonalEdgeStyle;rounded=0;orthogonalLoop=1;jettySize=auto;html=1;exitX=0.25;exitY=1;exitDx=0;exitDy=0;exitPerimeter=0;entryX=1;entryY=0.6;entryDx=0;entryDy=0;entryPerimeter=0;endArrow=none;endFill=0;" parent="1" source="FJFjf5WjBDoC7LGonaVu-104" target="is0OGJ1ILdpOx4lDECwO-62" edge="1">
          <mxGeometry relative="1" as="geometry">
            <mxPoint x="746.6550000000003" y="569.6475000000005" as="sourcePoint" />
          </mxGeometry>
        </mxCell>
        <mxCell id="FJFjf5WjBDoC7LGonaVu-205" value="RD2D" style="edgeLabel;html=1;align=left;verticalAlign=middle;resizable=0;points=[];fontFamily=Helvetica;fontSize=10;fontColor=default;labelBackgroundColor=none;fillColor=none;gradientColor=none;" parent="is0OGJ1ILdpOx4lDECwO-90" vertex="1" connectable="0">
          <mxGeometry x="0.5859" y="1" relative="1" as="geometry">
            <mxPoint x="-17" y="-12" as="offset" />
          </mxGeometry>
        </mxCell>
        <mxCell id="FJFjf5WjBDoC7LGonaVu-207" value="RD2E" style="edgeLabel;html=1;align=left;verticalAlign=middle;resizable=0;points=[];fontFamily=Helvetica;fontSize=10;fontColor=default;labelBackgroundColor=none;fillColor=none;gradientColor=none;" parent="is0OGJ1ILdpOx4lDECwO-90" vertex="1" connectable="0">
          <mxGeometry x="0.0005" y="-5" relative="1" as="geometry">
            <mxPoint x="-18" y="-5" as="offset" />
          </mxGeometry>
        </mxCell>
        <mxCell id="is0OGJ1ILdpOx4lDECwO-92" style="edgeStyle=orthogonalEdgeStyle;rounded=0;orthogonalLoop=1;jettySize=auto;html=1;entryX=0;entryY=0.22;entryDx=0;entryDy=0;entryPerimeter=0;exitX=0.5;exitY=0;exitDx=0;exitDy=0;exitPerimeter=0;endArrow=none;endFill=0;" parent="1" source="FJFjf5WjBDoC7LGonaVu-102" target="is0OGJ1ILdpOx4lDECwO-88" edge="1">
          <mxGeometry relative="1" as="geometry">
            <mxPoint x="805.16" y="519.98" as="sourcePoint" />
            <Array as="points">
              <mxPoint x="810.16" y="539.98" />
              <mxPoint x="810.16" y="532.98" />
            </Array>
          </mxGeometry>
        </mxCell>
        <mxCell id="FJFjf5WjBDoC7LGonaVu-199" value="SrcAE" style="edgeLabel;html=1;align=center;verticalAlign=middle;resizable=0;points=[];fontFamily=Helvetica;fontSize=10;fontColor=default;labelBackgroundColor=none;fillColor=none;gradientColor=none;" parent="is0OGJ1ILdpOx4lDECwO-92" vertex="1" connectable="0">
          <mxGeometry x="0.5919" relative="1" as="geometry">
            <mxPoint x="-1" y="-8" as="offset" />
          </mxGeometry>
        </mxCell>
        <mxCell id="is0OGJ1ILdpOx4lDECwO-98" value="+" style="shape=stencil(pZNNDoMgEIVPwx6hNumyoe2yd0DFSkQwQLW9feXHpNZoGk3YzHvD94ZkAJiYirYMIChpwwC+AISMZTLn4u4EhAarCnoCYaj7UKexpKZluQ1aRzWnmYgXjdWqZj0vbERwWTHNrXPxFcDz0OMOJhnN64dWT1lMjNFuqSPMjNFuVOee8Aohcaz3pALotgIQXH4B0ikh2Y84bUD8DrEbcdxAQOkEke4e4vAXIRfKsMUuTAZ9thJeXdgjTEql2cqClVyIsK0rqYsNPnqW4NXwvbzwAQ==);whiteSpace=wrap;html=1;strokeWidth=2;fontSize=15;points=[[0,0.22,0,0,0],[0,0.8,0,0,0],[1,0.5,0,0,0]];fontStyle=1;verticalAlign=middle;align=right;spacingRight=0;" parent="1" vertex="1">
          <mxGeometry x="847.16" y="616.98" width="30" height="60" as="geometry" />
        </mxCell>
        <mxCell id="FJFjf5WjBDoC7LGonaVu-8" value="" style="group" parent="1" vertex="1" connectable="0">
          <mxGeometry x="280.1" y="510" width="60" height="100" as="geometry" />
        </mxCell>
        <mxCell id="is0OGJ1ILdpOx4lDECwO-14" value="&lt;div style=&quot;font-size: 11px;&quot;&gt;&lt;b style=&quot;background-color: initial; font-size: 11px;&quot;&gt;Память&lt;/b&gt;&lt;br style=&quot;font-size: 11px;&quot;&gt;&lt;/div&gt;&lt;div style=&quot;font-size: 11px;&quot;&gt;&lt;b style=&quot;font-size: 11px;&quot;&gt;&lt;font style=&quot;font-size: 11px;&quot;&gt;команд&lt;/font&gt;&lt;/b&gt;&lt;/div&gt;" style="rounded=0;whiteSpace=wrap;html=1;strokeWidth=2;points=[[0,0.2,0,0,0],[1,0.2,0,0,0]];container=0;fontSize=11;verticalAlign=bottom;spacingBottom=14;" parent="FJFjf5WjBDoC7LGonaVu-8" vertex="1">
          <mxGeometry width="60" height="100" as="geometry" />
        </mxCell>
        <mxCell id="is0OGJ1ILdpOx4lDECwO-15" value="A" style="text;html=1;align=center;verticalAlign=middle;whiteSpace=wrap;rounded=0;points=[];fontSize=10;container=0;" parent="FJFjf5WjBDoC7LGonaVu-8" vertex="1">
          <mxGeometry x="3" y="12" width="15" height="15" as="geometry" />
        </mxCell>
        <mxCell id="is0OGJ1ILdpOx4lDECwO-19" value="RD" style="text;html=1;align=center;verticalAlign=middle;whiteSpace=wrap;rounded=0;points=[];fontSize=10;container=0;" parent="FJFjf5WjBDoC7LGonaVu-8" vertex="1">
          <mxGeometry x="40" y="12" width="15" height="15" as="geometry" />
        </mxCell>
        <mxCell id="FJFjf5WjBDoC7LGonaVu-14" value="" style="edgeStyle=orthogonalEdgeStyle;rounded=0;orthogonalLoop=1;jettySize=auto;html=1;exitX=0.5;exitY=0;exitDx=0;exitDy=0;exitPerimeter=0;entryX=0.25;entryY=1;entryDx=0;entryDy=0;entryPerimeter=0;endArrow=none;endFill=0;" parent="1" source="FJFjf5WjBDoC7LGonaVu-104" target="FJFjf5WjBDoC7LGonaVu-13" edge="1">
          <mxGeometry relative="1" as="geometry">
            <Array as="points">
              <mxPoint x="820.1" y="580" />
              <mxPoint x="820.1" y="559" />
            </Array>
            <mxPoint x="806.4150000000001" y="580.8300000000004" as="sourcePoint" />
            <mxPoint x="850.8949999999996" y="553.0324999999996" as="targetPoint" />
          </mxGeometry>
        </mxCell>
        <mxCell id="FJFjf5WjBDoC7LGonaVu-13" value="&lt;font style=&quot;font-size: 10px;&quot;&gt;0&amp;nbsp;&amp;nbsp;&lt;/font&gt;&lt;div style=&quot;font-size: 10px;&quot;&gt;&lt;font style=&quot;font-size: 10px;&quot;&gt;1&amp;nbsp;&amp;nbsp;&lt;/font&gt;&lt;/div&gt;" style="shape=trapezoid;perimeter=trapezoidPerimeter;whiteSpace=wrap;html=1;fixedSize=1;points=[[0.08,0.5,0,0,0],[0.25,1,0,0,0],[0.5,0,0,0,0],[0.75,1,0,0,0]];rotation=90;size=6;horizontal=0;strokeWidth=2;fontSize=10;" parent="1" vertex="1">
          <mxGeometry x="829.1" y="557" width="40.39" height="19.7" as="geometry" />
        </mxCell>
        <mxCell id="FJFjf5WjBDoC7LGonaVu-15" style="rounded=0;orthogonalLoop=1;jettySize=auto;html=1;exitX=0.5;exitY=0;exitDx=0;exitDy=0;exitPerimeter=0;entryX=0;entryY=0.8;entryDx=0;entryDy=0;entryPerimeter=0;endArrow=none;endFill=0;" parent="1" source="FJFjf5WjBDoC7LGonaVu-13" target="is0OGJ1ILdpOx4lDECwO-88" edge="1">
          <mxGeometry relative="1" as="geometry" />
        </mxCell>
        <mxCell id="FJFjf5WjBDoC7LGonaVu-200" value="SrcBE" style="edgeLabel;html=1;align=center;verticalAlign=middle;resizable=0;points=[];fontFamily=Helvetica;fontSize=10;fontColor=default;labelBackgroundColor=none;fillColor=none;gradientColor=none;" parent="FJFjf5WjBDoC7LGonaVu-15" vertex="1" connectable="0">
          <mxGeometry x="-0.4861" y="1" relative="1" as="geometry">
            <mxPoint x="12" y="-7" as="offset" />
          </mxGeometry>
        </mxCell>
        <mxCell id="FJFjf5WjBDoC7LGonaVu-17" value="" style="group" parent="1" vertex="1" connectable="0">
          <mxGeometry x="440.1" y="505" width="120" height="105" as="geometry" />
        </mxCell>
        <mxCell id="is0OGJ1ILdpOx4lDECwO-62" value="&lt;div style=&quot;font-size: 11px;&quot;&gt;Регистровый&lt;/div&gt;&lt;div style=&quot;font-size: 11px;&quot;&gt;файл&lt;/div&gt;" style="rounded=0;whiteSpace=wrap;html=1;strokeWidth=2;points=[[0,0.2,0,0,0],[0,0.4,0,0,0],[0,0.6,0,0,0],[0,0.8,0,0,0],[0.5,0,0,0,0],[1,0.2,0,0,0],[1,0.6,0,0,0]];verticalAlign=bottom;align=right;container=0;spacingRight=1;spacingBottom=6;fontStyle=1;fontSize=11;" parent="FJFjf5WjBDoC7LGonaVu-17" vertex="1">
          <mxGeometry y="5" width="120" height="100" as="geometry" />
        </mxCell>
        <mxCell id="is0OGJ1ILdpOx4lDECwO-63" value="A1" style="text;html=1;align=center;verticalAlign=middle;whiteSpace=wrap;rounded=0;points=[];fontSize=10;container=0;" parent="FJFjf5WjBDoC7LGonaVu-17" vertex="1">
          <mxGeometry x="6" y="17" width="15" height="15" as="geometry" />
        </mxCell>
        <mxCell id="is0OGJ1ILdpOx4lDECwO-64" value="RD1" style="text;html=1;align=center;verticalAlign=middle;whiteSpace=wrap;rounded=0;points=[];fontSize=10;container=0;" parent="FJFjf5WjBDoC7LGonaVu-17" vertex="1">
          <mxGeometry x="97" y="17" width="15" height="15" as="geometry" />
        </mxCell>
        <mxCell id="is0OGJ1ILdpOx4lDECwO-67" value="A2" style="text;html=1;align=center;verticalAlign=middle;whiteSpace=wrap;rounded=0;points=[];fontSize=10;container=0;" parent="FJFjf5WjBDoC7LGonaVu-17" vertex="1">
          <mxGeometry x="6" y="37" width="15" height="15" as="geometry" />
        </mxCell>
        <mxCell id="is0OGJ1ILdpOx4lDECwO-68" value="A3" style="text;html=1;align=center;verticalAlign=middle;whiteSpace=wrap;rounded=0;points=[];fontSize=10;container=0;" parent="FJFjf5WjBDoC7LGonaVu-17" vertex="1">
          <mxGeometry x="6" y="58" width="15" height="15" as="geometry" />
        </mxCell>
        <mxCell id="is0OGJ1ILdpOx4lDECwO-69" value="WD3" style="text;html=1;align=center;verticalAlign=middle;whiteSpace=wrap;rounded=0;points=[];fontSize=10;container=0;" parent="FJFjf5WjBDoC7LGonaVu-17" vertex="1">
          <mxGeometry x="11" y="77.49000000000001" width="15" height="15" as="geometry" />
        </mxCell>
        <mxCell id="is0OGJ1ILdpOx4lDECwO-70" value="RD2" style="text;html=1;align=center;verticalAlign=middle;whiteSpace=wrap;rounded=0;points=[];fontSize=10;container=0;" parent="FJFjf5WjBDoC7LGonaVu-17" vertex="1">
          <mxGeometry x="97" y="54" width="15" height="15" as="geometry" />
        </mxCell>
        <mxCell id="is0OGJ1ILdpOx4lDECwO-71" value="" style="triangle;whiteSpace=wrap;html=1;rotation=90;fontColor=default;labelBorderColor=none;perimeterSpacing=0;strokeColor=default;rounded=0;shadow=0;points=[];" parent="FJFjf5WjBDoC7LGonaVu-17" vertex="1">
          <mxGeometry x="15" width="10" height="20" as="geometry" />
        </mxCell>
        <mxCell id="is0OGJ1ILdpOx4lDECwO-72" value="" style="ellipse;whiteSpace=wrap;html=1;aspect=fixed;points=[[0.5,1,0,0,0]];rotation=-180;" parent="FJFjf5WjBDoC7LGonaVu-17" vertex="1">
          <mxGeometry x="17.5" width="5" height="5" as="geometry" />
        </mxCell>
        <mxCell id="FJFjf5WjBDoC7LGonaVu-6" value="WE3" style="text;html=1;align=center;verticalAlign=middle;whiteSpace=wrap;rounded=0;points=[];fontSize=10;container=0;" parent="FJFjf5WjBDoC7LGonaVu-17" vertex="1">
          <mxGeometry x="52.5" y="10" width="15" height="15" as="geometry" />
        </mxCell>
        <mxCell id="FJFjf5WjBDoC7LGonaVu-38" style="edgeStyle=orthogonalEdgeStyle;rounded=0;orthogonalLoop=1;jettySize=auto;html=1;exitX=1;exitY=0.5;exitDx=0;exitDy=0;exitPerimeter=0;entryX=0.25;entryY=1;entryDx=0;entryDy=0;entryPerimeter=0;endArrow=none;endFill=0;" parent="1" source="is0OGJ1ILdpOx4lDECwO-88" target="FJFjf5WjBDoC7LGonaVu-99" edge="1">
          <mxGeometry relative="1" as="geometry">
            <mxPoint x="1170.1" y="529.98" as="targetPoint" />
            <Array as="points">
              <mxPoint x="1040.1" y="550" />
              <mxPoint x="1040.1" y="480" />
              <mxPoint x="1220.1" y="480" />
              <mxPoint x="1220.1" y="540" />
            </Array>
          </mxGeometry>
        </mxCell>
        <mxCell id="FJFjf5WjBDoC7LGonaVu-151" value="ALUResultM" style="edgeLabel;html=1;align=center;verticalAlign=middle;resizable=0;points=[];fontFamily=Helvetica;fontSize=9;fontColor=default;labelBackgroundColor=none;fillColor=none;gradientColor=none;" parent="FJFjf5WjBDoC7LGonaVu-38" vertex="1" connectable="0">
          <mxGeometry x="-0.739" y="1" relative="1" as="geometry">
            <mxPoint x="9" y="-7" as="offset" />
          </mxGeometry>
        </mxCell>
        <mxCell id="FJFjf5WjBDoC7LGonaVu-294" value="ALUResultW" style="edgeLabel;html=1;align=center;verticalAlign=middle;resizable=0;points=[];fontFamily=Helvetica;fontSize=10;fontColor=default;labelBackgroundColor=none;fillColor=none;gradientColor=none;" parent="FJFjf5WjBDoC7LGonaVu-38" vertex="1" connectable="0">
          <mxGeometry x="0.5188" y="-1" relative="1" as="geometry">
            <mxPoint x="-2" y="-11" as="offset" />
          </mxGeometry>
        </mxCell>
        <mxCell id="FJFjf5WjBDoC7LGonaVu-42" style="edgeStyle=orthogonalEdgeStyle;rounded=0;orthogonalLoop=1;jettySize=auto;html=1;exitX=1;exitY=0.2;exitDx=0;exitDy=0;exitPerimeter=0;entryX=0;entryY=0.2;entryDx=0;entryDy=0;entryPerimeter=0;endArrow=none;endFill=0;" parent="1" source="is0OGJ1ILdpOx4lDECwO-14" target="is0OGJ1ILdpOx4lDECwO-62" edge="1">
          <mxGeometry relative="1" as="geometry" />
        </mxCell>
        <mxCell id="FJFjf5WjBDoC7LGonaVu-117" value="InstrD" style="edgeLabel;html=1;align=center;verticalAlign=middle;resizable=0;points=[];fontFamily=Helvetica;fontSize=10;fontColor=default;labelBackgroundColor=none;fillColor=none;gradientColor=none;" parent="FJFjf5WjBDoC7LGonaVu-42" vertex="1" connectable="0">
          <mxGeometry x="0.001" y="-1" relative="1" as="geometry">
            <mxPoint x="4" y="-9" as="offset" />
          </mxGeometry>
        </mxCell>
        <mxCell id="FJFjf5WjBDoC7LGonaVu-126" value="19:15" style="edgeLabel;html=1;align=center;verticalAlign=middle;resizable=0;points=[];fontFamily=Helvetica;fontSize=10;fontColor=default;labelBackgroundColor=none;fillColor=none;gradientColor=none;" parent="FJFjf5WjBDoC7LGonaVu-42" vertex="1" connectable="0">
          <mxGeometry x="0.6963" y="2" relative="1" as="geometry">
            <mxPoint x="-1" y="-6" as="offset" />
          </mxGeometry>
        </mxCell>
        <mxCell id="FJFjf5WjBDoC7LGonaVu-43" style="edgeStyle=orthogonalEdgeStyle;rounded=0;orthogonalLoop=1;jettySize=auto;html=1;exitX=1;exitY=0.2;exitDx=0;exitDy=0;exitPerimeter=0;entryX=0;entryY=0.4;entryDx=0;entryDy=0;entryPerimeter=0;endArrow=none;endFill=0;" parent="1" source="is0OGJ1ILdpOx4lDECwO-14" target="is0OGJ1ILdpOx4lDECwO-62" edge="1">
          <mxGeometry relative="1" as="geometry">
            <Array as="points">
              <mxPoint x="410.1" y="530" />
              <mxPoint x="410.1" y="550" />
            </Array>
          </mxGeometry>
        </mxCell>
        <mxCell id="FJFjf5WjBDoC7LGonaVu-127" value="24:20" style="edgeLabel;html=1;align=center;verticalAlign=middle;resizable=0;points=[];fontFamily=Helvetica;fontSize=10;fontColor=default;labelBackgroundColor=none;fillColor=none;gradientColor=none;" parent="FJFjf5WjBDoC7LGonaVu-43" vertex="1" connectable="0">
          <mxGeometry x="0.7783" relative="1" as="geometry">
            <mxPoint x="-2" y="-8" as="offset" />
          </mxGeometry>
        </mxCell>
        <mxCell id="FJFjf5WjBDoC7LGonaVu-45" value="CLK" style="text;html=1;align=center;verticalAlign=middle;whiteSpace=wrap;rounded=0;fontSize=10;points=[[0.5,1,0,0,0]];labelBackgroundColor=none;" parent="1" vertex="1">
          <mxGeometry x="445.1" y="485" width="30" height="15" as="geometry" />
        </mxCell>
        <mxCell id="FJFjf5WjBDoC7LGonaVu-46" style="edgeStyle=orthogonalEdgeStyle;rounded=0;orthogonalLoop=1;jettySize=auto;html=1;exitX=0.5;exitY=1;exitDx=0;exitDy=0;exitPerimeter=0;entryX=0.5;entryY=1;entryDx=0;entryDy=0;entryPerimeter=0;endArrow=none;endFill=0;" parent="1" source="FJFjf5WjBDoC7LGonaVu-45" target="is0OGJ1ILdpOx4lDECwO-72" edge="1">
          <mxGeometry relative="1" as="geometry" />
        </mxCell>
        <mxCell id="FJFjf5WjBDoC7LGonaVu-49" value="CLK" style="text;html=1;align=center;verticalAlign=middle;whiteSpace=wrap;rounded=0;fontSize=10;points=[[0.5,1,0,0,0]];labelBackgroundColor=none;" parent="1" vertex="1">
          <mxGeometry x="215.1" y="490" width="30" height="15" as="geometry" />
        </mxCell>
        <mxCell id="FJFjf5WjBDoC7LGonaVu-52" style="edgeStyle=orthogonalEdgeStyle;rounded=0;orthogonalLoop=1;jettySize=auto;html=1;exitX=0.5;exitY=1;exitDx=0;exitDy=0;exitPerimeter=0;entryX=0.5;entryY=0;entryDx=0;entryDy=0;entryPerimeter=0;endArrow=none;endFill=0;" parent="1" source="FJFjf5WjBDoC7LGonaVu-49" target="is0OGJ1ILdpOx4lDECwO-4" edge="1">
          <mxGeometry relative="1" as="geometry" />
        </mxCell>
        <mxCell id="FJFjf5WjBDoC7LGonaVu-57" style="edgeStyle=orthogonalEdgeStyle;rounded=0;orthogonalLoop=1;jettySize=auto;html=1;exitX=0;exitY=0.5;exitDx=0;exitDy=0;exitPerimeter=0;entryX=1;entryY=0.2;entryDx=0;entryDy=0;entryPerimeter=0;endArrow=none;endFill=0;fillColor=#dae8fc;strokeColor=#6c8ebf;" parent="1" source="FJFjf5WjBDoC7LGonaVu-44" target="is0OGJ1ILdpOx4lDECwO-14" edge="1">
          <mxGeometry relative="1" as="geometry">
            <Array as="points">
              <mxPoint x="410.1" y="370" />
              <mxPoint x="410.1" y="530" />
            </Array>
          </mxGeometry>
        </mxCell>
        <mxCell id="FJFjf5WjBDoC7LGonaVu-112" value="6:0" style="edgeLabel;html=1;align=center;verticalAlign=middle;resizable=0;points=[];fontFamily=Helvetica;fontSize=10;fontColor=#006AFF;labelBackgroundColor=none;fillColor=none;gradientColor=none;" parent="FJFjf5WjBDoC7LGonaVu-57" vertex="1" connectable="0">
          <mxGeometry x="-0.8883" y="1" relative="1" as="geometry">
            <mxPoint y="-9" as="offset" />
          </mxGeometry>
        </mxCell>
        <mxCell id="FJFjf5WjBDoC7LGonaVu-58" style="edgeStyle=orthogonalEdgeStyle;rounded=0;orthogonalLoop=1;jettySize=auto;html=1;exitX=0;exitY=0.7;exitDx=0;exitDy=0;exitPerimeter=0;entryX=1;entryY=0.2;entryDx=0;entryDy=0;entryPerimeter=0;endArrow=none;endFill=0;fillColor=#dae8fc;strokeColor=#6c8ebf;" parent="1" source="FJFjf5WjBDoC7LGonaVu-44" target="is0OGJ1ILdpOx4lDECwO-14" edge="1">
          <mxGeometry relative="1" as="geometry">
            <mxPoint x="445.1" y="375" as="sourcePoint" />
            <mxPoint x="345.1" y="535" as="targetPoint" />
            <Array as="points">
              <mxPoint x="410.1" y="410" />
              <mxPoint x="410.1" y="530" />
            </Array>
          </mxGeometry>
        </mxCell>
        <mxCell id="FJFjf5WjBDoC7LGonaVu-113" value="14:12" style="edgeLabel;html=1;align=center;verticalAlign=middle;resizable=0;points=[];fontFamily=Helvetica;fontSize=10;fontColor=#006AFF;labelBackgroundColor=none;fillColor=none;gradientColor=none;" parent="FJFjf5WjBDoC7LGonaVu-58" vertex="1" connectable="0">
          <mxGeometry x="-0.8923" y="-1" relative="1" as="geometry">
            <mxPoint x="-3" y="-7" as="offset" />
          </mxGeometry>
        </mxCell>
        <mxCell id="FJFjf5WjBDoC7LGonaVu-59" style="edgeStyle=orthogonalEdgeStyle;rounded=0;orthogonalLoop=1;jettySize=auto;html=1;exitX=0;exitY=0.9;exitDx=0;exitDy=0;exitPerimeter=0;endArrow=none;endFill=0;fillColor=#dae8fc;strokeColor=#6c8ebf;" parent="1" source="FJFjf5WjBDoC7LGonaVu-44" edge="1">
          <mxGeometry relative="1" as="geometry">
            <mxPoint x="445.1" y="415" as="sourcePoint" />
            <mxPoint x="340.1" y="530" as="targetPoint" />
            <Array as="points">
              <mxPoint x="410.1" y="450" />
              <mxPoint x="410.1" y="530" />
            </Array>
          </mxGeometry>
        </mxCell>
        <mxCell id="FJFjf5WjBDoC7LGonaVu-114" value="30" style="edgeLabel;html=1;align=center;verticalAlign=middle;resizable=0;points=[];fontFamily=Helvetica;fontSize=10;fontColor=#006AFF;labelBackgroundColor=none;fillColor=none;gradientColor=none;" parent="FJFjf5WjBDoC7LGonaVu-59" vertex="1" connectable="0">
          <mxGeometry x="-0.8461" y="-1" relative="1" as="geometry">
            <mxPoint y="-7" as="offset" />
          </mxGeometry>
        </mxCell>
        <mxCell id="FJFjf5WjBDoC7LGonaVu-61" style="edgeStyle=orthogonalEdgeStyle;rounded=0;orthogonalLoop=1;jettySize=auto;html=1;exitX=1;exitY=0.5;exitDx=0;exitDy=0;exitPerimeter=0;entryX=0;entryY=0.22;entryDx=0;entryDy=0;entryPerimeter=0;endArrow=none;endFill=0;" parent="1" source="is0OGJ1ILdpOx4lDECwO-4" target="is0OGJ1ILdpOx4lDECwO-98" edge="1">
          <mxGeometry relative="1" as="geometry">
            <mxPoint x="744.1" y="640" as="targetPoint" />
            <Array as="points">
              <mxPoint x="260.1" y="530" />
              <mxPoint x="260.1" y="630" />
              <mxPoint x="800.1" y="630" />
            </Array>
          </mxGeometry>
        </mxCell>
        <mxCell id="FJFjf5WjBDoC7LGonaVu-131" value="PCD" style="edgeLabel;html=1;align=left;verticalAlign=middle;resizable=0;points=[];fontFamily=Helvetica;fontSize=10;fontColor=default;labelBackgroundColor=none;fillColor=none;gradientColor=none;" parent="FJFjf5WjBDoC7LGonaVu-61" vertex="1" connectable="0">
          <mxGeometry x="0.4422" y="-2" relative="1" as="geometry">
            <mxPoint x="-60" y="-12" as="offset" />
          </mxGeometry>
        </mxCell>
        <mxCell id="FJFjf5WjBDoC7LGonaVu-180" value="PCE" style="edgeLabel;html=1;align=left;verticalAlign=middle;resizable=0;points=[];fontFamily=Helvetica;fontSize=10;fontColor=default;labelBackgroundColor=none;fillColor=none;gradientColor=none;" parent="FJFjf5WjBDoC7LGonaVu-61" vertex="1" connectable="0">
          <mxGeometry x="0.5118" y="-2" relative="1" as="geometry">
            <mxPoint x="-20" y="-12" as="offset" />
          </mxGeometry>
        </mxCell>
        <mxCell id="FJFjf5WjBDoC7LGonaVu-68" value="" style="shape=or;whiteSpace=wrap;html=1;rotation=-180;points=[[0,0.25,0,0,0],[0,0.75,0,0,0],[1,0.5,0,0,0]];fillColor=#dae8fc;strokeColor=#6c8ebf;" parent="1" vertex="1">
          <mxGeometry x="775.1" y="220" width="30" height="40" as="geometry" />
        </mxCell>
        <mxCell id="FJFjf5WjBDoC7LGonaVu-69" style="edgeStyle=orthogonalEdgeStyle;rounded=0;orthogonalLoop=1;jettySize=auto;html=1;exitX=1;exitY=0.9;exitDx=0;exitDy=0;exitPerimeter=0;entryX=0.5;entryY=0.17;entryDx=0;entryDy=0;entryPerimeter=0;endArrow=none;endFill=0;fillColor=#dae8fc;strokeColor=#6c8ebf;" parent="1" source="FJFjf5WjBDoC7LGonaVu-44" target="is0OGJ1ILdpOx4lDECwO-60" edge="1">
          <mxGeometry relative="1" as="geometry">
            <Array as="points">
              <mxPoint x="575" y="450" />
              <mxPoint x="575" y="620" />
              <mxPoint x="492" y="620" />
              <mxPoint x="492" y="701" />
            </Array>
          </mxGeometry>
        </mxCell>
        <mxCell id="FJFjf5WjBDoC7LGonaVu-70" value="ImmSrcD&lt;sub style=&quot;font-size: 10px;&quot;&gt;2:0&lt;/sub&gt;" style="edgeLabel;html=1;align=left;verticalAlign=middle;resizable=0;points=[];fontSize=10;fontColor=#006AFF;labelBackgroundColor=none;" parent="FJFjf5WjBDoC7LGonaVu-69" vertex="1" connectable="0">
          <mxGeometry x="-0.8751" y="-2" relative="1" as="geometry">
            <mxPoint x="1" y="-12" as="offset" />
          </mxGeometry>
        </mxCell>
        <mxCell id="FJFjf5WjBDoC7LGonaVu-71" style="edgeStyle=orthogonalEdgeStyle;rounded=0;orthogonalLoop=1;jettySize=auto;html=1;exitX=1;exitY=0.8;exitDx=0;exitDy=0;exitPerimeter=0;entryX=0.08;entryY=0.5;entryDx=0;entryDy=0;entryPerimeter=0;endArrow=none;endFill=0;fillColor=#dae8fc;strokeColor=#6c8ebf;" parent="1" source="FJFjf5WjBDoC7LGonaVu-44" target="FJFjf5WjBDoC7LGonaVu-13" edge="1">
          <mxGeometry relative="1" as="geometry" />
        </mxCell>
        <mxCell id="FJFjf5WjBDoC7LGonaVu-72" value="ALUSrcD" style="edgeLabel;html=1;align=left;verticalAlign=middle;resizable=0;points=[];fontSize=10;fontColor=#006AFF;labelBackgroundColor=none;" parent="FJFjf5WjBDoC7LGonaVu-71" vertex="1" connectable="0">
          <mxGeometry x="-0.7242" y="2" relative="1" as="geometry">
            <mxPoint x="-39" y="-8" as="offset" />
          </mxGeometry>
        </mxCell>
        <mxCell id="FJFjf5WjBDoC7LGonaVu-259" value="&lt;span style=&quot;color: rgb(0, 106, 255);&quot;&gt;ALUSrcE&lt;/span&gt;" style="edgeLabel;html=1;align=left;verticalAlign=middle;resizable=0;points=[];fontFamily=Helvetica;fontSize=10;fontColor=default;labelBackgroundColor=none;fillColor=none;gradientColor=none;" parent="FJFjf5WjBDoC7LGonaVu-71" vertex="1" connectable="0">
          <mxGeometry x="-0.1761" y="-1" relative="1" as="geometry">
            <mxPoint x="-26" y="-11" as="offset" />
          </mxGeometry>
        </mxCell>
        <mxCell id="FJFjf5WjBDoC7LGonaVu-74" style="edgeStyle=orthogonalEdgeStyle;rounded=0;orthogonalLoop=1;jettySize=auto;html=1;exitX=1;exitY=0.7;exitDx=0;exitDy=0;exitPerimeter=0;entryX=0.5;entryY=0.05;entryDx=0;entryDy=0;entryPerimeter=0;endArrow=none;endFill=0;fillColor=#dae8fc;strokeColor=#6c8ebf;" parent="1" source="FJFjf5WjBDoC7LGonaVu-44" target="is0OGJ1ILdpOx4lDECwO-88" edge="1">
          <mxGeometry relative="1" as="geometry" />
        </mxCell>
        <mxCell id="FJFjf5WjBDoC7LGonaVu-75" value="ALUControlD&lt;sub&gt;3&lt;/sub&gt;&lt;sub style=&quot;font-size: 10px;&quot;&gt;:0&lt;/sub&gt;" style="edgeLabel;html=1;align=left;verticalAlign=middle;resizable=0;points=[];fontSize=10;fontColor=#006AFF;labelBackgroundColor=none;" parent="FJFjf5WjBDoC7LGonaVu-74" vertex="1" connectable="0">
          <mxGeometry x="-0.8251" relative="1" as="geometry">
            <mxPoint x="-21" y="-10" as="offset" />
          </mxGeometry>
        </mxCell>
        <mxCell id="FJFjf5WjBDoC7LGonaVu-258" value="&lt;span style=&quot;color: rgb(0, 106, 255); font-size: 9px;&quot;&gt;ALUControlE&lt;/span&gt;&lt;sub style=&quot;color: rgb(0, 106, 255); font-size: 9px;&quot;&gt;3:0&lt;/sub&gt;" style="edgeLabel;html=1;align=left;verticalAlign=middle;resizable=0;points=[];fontFamily=Helvetica;fontSize=9;fontColor=default;labelBackgroundColor=none;fillColor=none;gradientColor=none;" parent="FJFjf5WjBDoC7LGonaVu-74" vertex="1" connectable="0">
          <mxGeometry x="-0.3469" y="-1" relative="1" as="geometry">
            <mxPoint x="-9" y="-11" as="offset" />
          </mxGeometry>
        </mxCell>
        <mxCell id="FJFjf5WjBDoC7LGonaVu-183" style="edgeStyle=orthogonalEdgeStyle;shape=connector;rounded=0;orthogonalLoop=1;jettySize=auto;html=1;exitX=1;exitY=0.5;exitDx=0;exitDy=0;exitPerimeter=0;strokeColor=#b85450;align=center;verticalAlign=middle;fontFamily=Helvetica;fontSize=10;fontColor=default;labelBackgroundColor=default;resizable=0;endArrow=none;endFill=0;fillColor=#f8cecc;" parent="1" source="FJFjf5WjBDoC7LGonaVu-76" edge="1">
          <mxGeometry relative="1" as="geometry">
            <mxPoint x="720.1" y="870" as="targetPoint" />
            <Array as="points">
              <mxPoint x="725.1" y="250" />
              <mxPoint x="725.1" y="870" />
            </Array>
          </mxGeometry>
        </mxCell>
        <mxCell id="FJFjf5WjBDoC7LGonaVu-222" value="PCSrcE" style="edgeLabel;html=1;align=center;verticalAlign=middle;resizable=0;points=[];fontFamily=Helvetica;fontSize=10;fontColor=#FF0000;labelBackgroundColor=none;fillColor=none;gradientColor=none;horizontal=0;" parent="FJFjf5WjBDoC7LGonaVu-183" vertex="1" connectable="0">
          <mxGeometry x="0.942" relative="1" as="geometry">
            <mxPoint x="-8" y="-7" as="offset" />
          </mxGeometry>
        </mxCell>
        <mxCell id="FJFjf5WjBDoC7LGonaVu-76" value="" style="shape=xor;whiteSpace=wrap;html=1;points=[[0.175,0.25,0,0,0],[0.175,0.75,0,0,0],[1,0.5,0,0,0]];rotation=-180;fillColor=#dae8fc;strokeColor=#6c8ebf;" parent="1" vertex="1">
          <mxGeometry x="735.1" y="230" width="30" height="40" as="geometry" />
        </mxCell>
        <mxCell id="FJFjf5WjBDoC7LGonaVu-77" style="edgeStyle=orthogonalEdgeStyle;rounded=0;orthogonalLoop=1;jettySize=auto;html=1;exitX=1;exitY=0.5;exitDx=0;exitDy=0;exitPerimeter=0;entryX=0.175;entryY=0.75;entryDx=0;entryDy=0;entryPerimeter=0;endArrow=none;endFill=0;fillColor=#dae8fc;strokeColor=#6c8ebf;" parent="1" source="FJFjf5WjBDoC7LGonaVu-68" target="FJFjf5WjBDoC7LGonaVu-76" edge="1">
          <mxGeometry relative="1" as="geometry" />
        </mxCell>
        <mxCell id="FJFjf5WjBDoC7LGonaVu-79" style="edgeStyle=orthogonalEdgeStyle;rounded=0;orthogonalLoop=1;jettySize=auto;html=1;exitX=1;exitY=0.6;exitDx=0;exitDy=0;exitPerimeter=0;entryX=0;entryY=0.25;entryDx=0;entryDy=0;entryPerimeter=0;endArrow=none;endFill=0;fillColor=#dae8fc;strokeColor=#6c8ebf;" parent="1" source="FJFjf5WjBDoC7LGonaVu-44" target="FJFjf5WjBDoC7LGonaVu-68" edge="1">
          <mxGeometry relative="1" as="geometry" />
        </mxCell>
        <mxCell id="FJFjf5WjBDoC7LGonaVu-80" value="BranchD" style="edgeLabel;html=1;align=left;verticalAlign=middle;resizable=0;points=[];fontSize=10;fontColor=#006AFF;labelBackgroundColor=none;" parent="FJFjf5WjBDoC7LGonaVu-79" vertex="1" connectable="0">
          <mxGeometry x="-0.7585" y="4" relative="1" as="geometry">
            <mxPoint x="-33" y="-6" as="offset" />
          </mxGeometry>
        </mxCell>
        <mxCell id="FJFjf5WjBDoC7LGonaVu-257" value="&lt;span style=&quot;color: rgb(0, 106, 255);&quot;&gt;BranchE&lt;/span&gt;" style="edgeLabel;html=1;align=left;verticalAlign=middle;resizable=0;points=[];fontFamily=Helvetica;fontSize=10;fontColor=default;labelBackgroundColor=none;fillColor=none;gradientColor=none;" parent="FJFjf5WjBDoC7LGonaVu-79" vertex="1" connectable="0">
          <mxGeometry x="-0.24" y="-1" relative="1" as="geometry">
            <mxPoint x="-17" y="-11" as="offset" />
          </mxGeometry>
        </mxCell>
        <mxCell id="FJFjf5WjBDoC7LGonaVu-81" style="edgeStyle=orthogonalEdgeStyle;rounded=0;orthogonalLoop=1;jettySize=auto;html=1;exitX=1;exitY=0.25;exitDx=0;exitDy=0;exitPerimeter=0;entryX=0.175;entryY=0.75;entryDx=0;entryDy=0;entryPerimeter=0;endArrow=none;endFill=0;fillColor=#dae8fc;strokeColor=#6c8ebf;" parent="1" source="is0OGJ1ILdpOx4lDECwO-88" target="FJFjf5WjBDoC7LGonaVu-298" edge="1">
          <mxGeometry relative="1" as="geometry">
            <Array as="points">
              <mxPoint x="950.1" y="535" />
              <mxPoint x="950.1" y="220" />
            </Array>
          </mxGeometry>
        </mxCell>
        <mxCell id="FJFjf5WjBDoC7LGonaVu-82" value="ZeroE" style="edgeLabel;html=1;align=center;verticalAlign=middle;resizable=0;points=[];fontSize=10;fontColor=#006AFF;labelBackgroundColor=none;" parent="FJFjf5WjBDoC7LGonaVu-81" vertex="1" connectable="0">
          <mxGeometry x="0.6242" relative="1" as="geometry">
            <mxPoint x="-27" y="-10" as="offset" />
          </mxGeometry>
        </mxCell>
        <mxCell id="FJFjf5WjBDoC7LGonaVu-83" style="edgeStyle=orthogonalEdgeStyle;rounded=0;orthogonalLoop=1;jettySize=auto;html=1;exitX=1;exitY=0.5;exitDx=0;exitDy=0;exitPerimeter=0;entryX=0.175;entryY=0.25;entryDx=0;entryDy=0;entryPerimeter=0;endArrow=none;endFill=0;fillColor=#dae8fc;strokeColor=#6c8ebf;" parent="1" source="FJFjf5WjBDoC7LGonaVu-44" target="FJFjf5WjBDoC7LGonaVu-76" edge="1">
          <mxGeometry relative="1" as="geometry">
            <Array as="points">
              <mxPoint x="770.1" y="370" />
              <mxPoint x="770.1" y="260" />
            </Array>
          </mxGeometry>
        </mxCell>
        <mxCell id="FJFjf5WjBDoC7LGonaVu-84" value="JumpD" style="edgeLabel;html=1;align=left;verticalAlign=middle;resizable=0;points=[];fontSize=10;fontColor=#006AFF;labelBackgroundColor=none;" parent="FJFjf5WjBDoC7LGonaVu-83" vertex="1" connectable="0">
          <mxGeometry x="-0.7346" y="5" relative="1" as="geometry">
            <mxPoint x="-27" y="-5" as="offset" />
          </mxGeometry>
        </mxCell>
        <mxCell id="FJFjf5WjBDoC7LGonaVu-256" value="&lt;span style=&quot;color: rgb(0, 106, 255);&quot;&gt;JumpE&lt;/span&gt;" style="edgeLabel;html=1;align=left;verticalAlign=middle;resizable=0;points=[];fontFamily=Helvetica;fontSize=10;fontColor=default;labelBackgroundColor=none;fillColor=none;gradientColor=none;" parent="FJFjf5WjBDoC7LGonaVu-83" vertex="1" connectable="0">
          <mxGeometry x="-0.0967" relative="1" as="geometry">
            <mxPoint x="-10" y="-9" as="offset" />
          </mxGeometry>
        </mxCell>
        <mxCell id="FJFjf5WjBDoC7LGonaVu-85" style="edgeStyle=orthogonalEdgeStyle;rounded=0;orthogonalLoop=1;jettySize=auto;html=1;exitX=1;exitY=0.5;exitDx=0;exitDy=0;exitPerimeter=0;entryX=0.08;entryY=0.5;entryDx=0;entryDy=0;entryPerimeter=0;fillColor=#dae8fc;strokeColor=#6c8ebf;endArrow=none;endFill=0;" parent="1" source="FJFjf5WjBDoC7LGonaVu-76" target="-DspEDwFLZWsZTNbwFcD-6" edge="1">
          <mxGeometry relative="1" as="geometry" />
        </mxCell>
        <mxCell id="FJFjf5WjBDoC7LGonaVu-86" value="PCSrcE" style="edgeLabel;html=1;align=center;verticalAlign=middle;resizable=0;points=[];fontSize=10;fontColor=#006AFF;labelBackgroundColor=none;" parent="FJFjf5WjBDoC7LGonaVu-85" vertex="1" connectable="0">
          <mxGeometry x="-0.9325" relative="1" as="geometry">
            <mxPoint x="2" y="-10" as="offset" />
          </mxGeometry>
        </mxCell>
        <mxCell id="FJFjf5WjBDoC7LGonaVu-93" style="edgeStyle=orthogonalEdgeStyle;rounded=0;orthogonalLoop=1;jettySize=auto;html=1;exitX=1;exitY=0.4;exitDx=0;exitDy=0;exitPerimeter=0;entryX=0.66;entryY=0;entryDx=0;entryDy=0;entryPerimeter=0;endArrow=none;endFill=0;fillColor=#dae8fc;strokeColor=#6c8ebf;" parent="1" source="FJFjf5WjBDoC7LGonaVu-44" target="FJFjf5WjBDoC7LGonaVu-10" edge="1">
          <mxGeometry relative="1" as="geometry">
            <mxPoint x="1025.1" y="500" as="targetPoint" />
            <Array as="points">
              <mxPoint x="1098.1" y="350" />
            </Array>
          </mxGeometry>
        </mxCell>
        <mxCell id="FJFjf5WjBDoC7LGonaVu-94" value="MemWriteD" style="edgeLabel;html=1;align=left;verticalAlign=middle;resizable=0;points=[];fontColor=#006AFF;labelBackgroundColor=none;" parent="FJFjf5WjBDoC7LGonaVu-93" vertex="1" connectable="0">
          <mxGeometry x="-0.7567" y="1" relative="1" as="geometry">
            <mxPoint x="-67" y="-9" as="offset" />
          </mxGeometry>
        </mxCell>
        <mxCell id="FJFjf5WjBDoC7LGonaVu-255" value="&lt;span style=&quot;color: rgb(0, 106, 255); font-size: 11px;&quot;&gt;MemWriteE&lt;/span&gt;" style="edgeLabel;html=1;align=left;verticalAlign=middle;resizable=0;points=[];fontFamily=Helvetica;fontSize=10;fontColor=default;labelBackgroundColor=none;fillColor=none;gradientColor=none;" parent="FJFjf5WjBDoC7LGonaVu-93" vertex="1" connectable="0">
          <mxGeometry x="-0.4976" relative="1" as="geometry">
            <mxPoint x="-21" y="-10" as="offset" />
          </mxGeometry>
        </mxCell>
        <mxCell id="FJFjf5WjBDoC7LGonaVu-271" value="&lt;span style=&quot;color: rgb(0, 106, 255); font-size: 11px;&quot;&gt;MemWriteM&lt;/span&gt;" style="edgeLabel;html=1;align=left;verticalAlign=middle;resizable=0;points=[];fontFamily=Helvetica;fontSize=10;fontColor=default;labelBackgroundColor=none;fillColor=none;gradientColor=none;" parent="FJFjf5WjBDoC7LGonaVu-93" vertex="1" connectable="0">
          <mxGeometry x="0.374" y="3" relative="1" as="geometry">
            <mxPoint x="-30" y="-7" as="offset" />
          </mxGeometry>
        </mxCell>
        <mxCell id="FJFjf5WjBDoC7LGonaVu-97" style="edgeStyle=orthogonalEdgeStyle;rounded=0;orthogonalLoop=1;jettySize=auto;html=1;exitX=1;exitY=0.3;exitDx=0;exitDy=0;exitPerimeter=0;entryX=0.08;entryY=0.5;entryDx=0;entryDy=0;entryPerimeter=0;endArrow=none;endFill=0;fillColor=#dae8fc;strokeColor=#6c8ebf;" parent="1" source="FJFjf5WjBDoC7LGonaVu-44" target="FJFjf5WjBDoC7LGonaVu-99" edge="1">
          <mxGeometry relative="1" as="geometry">
            <mxPoint x="1140.1" y="525" as="targetPoint" />
          </mxGeometry>
        </mxCell>
        <mxCell id="FJFjf5WjBDoC7LGonaVu-105" value="ResultSrcD&lt;sub&gt;1:0&lt;/sub&gt;" style="edgeLabel;html=1;align=left;verticalAlign=middle;resizable=0;points=[];fontColor=#006AFF;labelBackgroundColor=none;" parent="FJFjf5WjBDoC7LGonaVu-97" vertex="1" connectable="0">
          <mxGeometry x="-0.8051" relative="1" as="geometry">
            <mxPoint x="-67" y="-10" as="offset" />
          </mxGeometry>
        </mxCell>
        <mxCell id="FJFjf5WjBDoC7LGonaVu-254" value="&lt;span style=&quot;color: rgb(0, 106, 255); font-size: 10px;&quot;&gt;ResultSrcE&lt;/span&gt;&lt;sub style=&quot;color: rgb(0, 106, 255); font-size: 10px;&quot;&gt;1:0&lt;/sub&gt;" style="edgeLabel;html=1;align=left;verticalAlign=middle;resizable=0;points=[];fontFamily=Helvetica;fontSize=10;fontColor=default;labelBackgroundColor=none;fillColor=none;gradientColor=none;" parent="FJFjf5WjBDoC7LGonaVu-97" vertex="1" connectable="0">
          <mxGeometry x="-0.5815" y="1" relative="1" as="geometry">
            <mxPoint x="-29" y="-9" as="offset" />
          </mxGeometry>
        </mxCell>
        <mxCell id="FJFjf5WjBDoC7LGonaVu-270" value="&lt;span style=&quot;font-size: 11px; color: rgb(0, 106, 255);&quot;&gt;ResultSrcM&lt;/span&gt;&lt;sub style=&quot;color: rgb(0, 106, 255); font-size: 11px;&quot;&gt;1:0&lt;/sub&gt;" style="edgeLabel;html=1;align=left;verticalAlign=middle;resizable=0;points=[];fontFamily=Helvetica;fontSize=11;fontColor=default;labelBackgroundColor=none;fillColor=none;gradientColor=none;" parent="FJFjf5WjBDoC7LGonaVu-97" vertex="1" connectable="0">
          <mxGeometry x="0.0771" relative="1" as="geometry">
            <mxPoint x="-19" y="-10" as="offset" />
          </mxGeometry>
        </mxCell>
        <mxCell id="FJFjf5WjBDoC7LGonaVu-278" value="&lt;span style=&quot;font-size: 11px; color: rgb(0, 106, 255);&quot;&gt;ResultSrcW&lt;/span&gt;&lt;sub style=&quot;color: rgb(0, 106, 255); font-size: 11px;&quot;&gt;1:0&lt;/sub&gt;" style="edgeLabel;html=1;align=left;verticalAlign=middle;resizable=0;points=[];fontFamily=Helvetica;fontSize=10;fontColor=default;labelBackgroundColor=none;fillColor=none;gradientColor=none;" parent="FJFjf5WjBDoC7LGonaVu-97" vertex="1" connectable="0">
          <mxGeometry x="0.5202" relative="1" as="geometry">
            <mxPoint x="-55" y="-10" as="offset" />
          </mxGeometry>
        </mxCell>
        <mxCell id="FJFjf5WjBDoC7LGonaVu-141" style="edgeStyle=orthogonalEdgeStyle;shape=connector;rounded=0;orthogonalLoop=1;jettySize=auto;html=1;exitX=0.5;exitY=0;exitDx=0;exitDy=0;exitPerimeter=0;strokeColor=default;align=center;verticalAlign=middle;fontFamily=Helvetica;fontSize=10;fontColor=default;labelBackgroundColor=default;resizable=0;endArrow=none;endFill=0;entryX=0;entryY=0.8;entryDx=0;entryDy=0;entryPerimeter=0;" parent="1" source="FJFjf5WjBDoC7LGonaVu-99" target="is0OGJ1ILdpOx4lDECwO-62" edge="1">
          <mxGeometry relative="1" as="geometry">
            <mxPoint x="420.1" y="600" as="targetPoint" />
            <Array as="points">
              <mxPoint x="1280.1" y="550" />
              <mxPoint x="1280.1" y="810" />
              <mxPoint x="390.1" y="810" />
              <mxPoint x="390.1" y="590" />
            </Array>
          </mxGeometry>
        </mxCell>
        <mxCell id="FJFjf5WjBDoC7LGonaVu-99" value="00&lt;div style=&quot;font-size: 9px;&quot;&gt;01&lt;/div&gt;&lt;div style=&quot;font-size: 9px;&quot;&gt;11&lt;/div&gt;" style="shape=trapezoid;perimeter=trapezoidPerimeter;whiteSpace=wrap;html=1;fixedSize=1;points=[[0.08,0.5,0,0,0],[0.25,1,0,0,0],[0.5,0,0,0,0],[0.5,1,0,0,0],[0.75,1,0,0,0],[0.92,0.5,0,0,0]];strokeWidth=2;rotation=90;size=5;horizontal=0;fontSize=9;spacingRight=0;align=left;spacingLeft=1;" parent="1" vertex="1">
          <mxGeometry x="1230.04" y="539.98" width="40" height="20" as="geometry" />
        </mxCell>
        <mxCell id="FJFjf5WjBDoC7LGonaVu-101" style="edgeStyle=orthogonalEdgeStyle;rounded=0;orthogonalLoop=1;jettySize=auto;html=1;exitX=1;exitY=0.4;exitDx=0;exitDy=0;exitPerimeter=0;entryX=0.5;entryY=1;entryDx=0;entryDy=0;entryPerimeter=0;endArrow=none;endFill=0;" parent="1" source="FJFjf5WjBDoC7LGonaVu-10" target="FJFjf5WjBDoC7LGonaVu-99" edge="1">
          <mxGeometry relative="1" as="geometry" />
        </mxCell>
        <mxCell id="FJFjf5WjBDoC7LGonaVu-208" value="ReadDataW" style="edgeLabel;html=1;align=center;verticalAlign=middle;resizable=0;points=[];fontFamily=Helvetica;fontSize=10;fontColor=default;labelBackgroundColor=none;fillColor=none;gradientColor=none;" parent="FJFjf5WjBDoC7LGonaVu-101" vertex="1" connectable="0">
          <mxGeometry x="0.078" y="-1" relative="1" as="geometry">
            <mxPoint x="6" y="-11" as="offset" />
          </mxGeometry>
        </mxCell>
        <mxCell id="FJFjf5WjBDoC7LGonaVu-150" style="edgeStyle=orthogonalEdgeStyle;shape=connector;rounded=0;orthogonalLoop=1;jettySize=auto;html=1;exitX=0.75;exitY=1;exitDx=0;exitDy=0;exitPerimeter=0;strokeColor=default;align=center;verticalAlign=middle;fontFamily=Helvetica;fontSize=10;fontColor=default;labelBackgroundColor=default;resizable=0;endArrow=none;endFill=0;entryX=0;entryY=0.4;entryDx=0;entryDy=0;entryPerimeter=0;" parent="1" source="FJFjf5WjBDoC7LGonaVu-102" target="FJFjf5WjBDoC7LGonaVu-10" edge="1">
          <mxGeometry relative="1" as="geometry">
            <mxPoint x="980.16" y="569.9799999999996" as="targetPoint" />
            <Array as="points">
              <mxPoint x="750.1" y="550" />
              <mxPoint x="750.1" y="800" />
              <mxPoint x="1000.1" y="800" />
              <mxPoint x="1000.1" y="550" />
            </Array>
          </mxGeometry>
        </mxCell>
        <mxCell id="FJFjf5WjBDoC7LGonaVu-184" style="edgeStyle=orthogonalEdgeStyle;shape=connector;rounded=0;orthogonalLoop=1;jettySize=auto;html=1;exitX=0.92;exitY=0.5;exitDx=0;exitDy=0;exitPerimeter=0;strokeColor=#b85450;align=center;verticalAlign=middle;fontFamily=Helvetica;fontSize=10;fontColor=default;labelBackgroundColor=default;resizable=0;endArrow=none;endFill=0;fillColor=#f8cecc;" parent="1" source="FJFjf5WjBDoC7LGonaVu-102" edge="1">
          <mxGeometry relative="1" as="geometry">
            <mxPoint x="770.1" y="870" as="targetPoint" />
          </mxGeometry>
        </mxCell>
        <mxCell id="FJFjf5WjBDoC7LGonaVu-223" value="ForwardAE" style="edgeLabel;html=1;align=center;verticalAlign=middle;resizable=0;points=[];fontFamily=Helvetica;fontSize=10;fontColor=#FF0000;labelBackgroundColor=none;fillColor=none;gradientColor=none;horizontal=0;" parent="FJFjf5WjBDoC7LGonaVu-184" vertex="1" connectable="0">
          <mxGeometry x="0.9268" y="2" relative="1" as="geometry">
            <mxPoint x="-11" y="-17" as="offset" />
          </mxGeometry>
        </mxCell>
        <mxCell id="FJFjf5WjBDoC7LGonaVu-102" value="00&lt;div style=&quot;font-size: 9px;&quot;&gt;01&lt;/div&gt;&lt;div style=&quot;font-size: 9px;&quot;&gt;11&lt;/div&gt;" style="shape=trapezoid;perimeter=trapezoidPerimeter;whiteSpace=wrap;html=1;fixedSize=1;points=[[0.08,0.5,0,0,0],[0.25,1,0,0,0],[0.5,0,0,0,0],[0.5,1,0,0,0],[0.75,1,0,0,0],[0.92,0.5,0,0,0]];strokeWidth=2;rotation=90;size=5;horizontal=0;fontSize=9;spacingRight=0;align=left;spacingLeft=1;" parent="1" vertex="1">
          <mxGeometry x="750.16" y="529.98" width="40" height="20" as="geometry" />
        </mxCell>
        <mxCell id="FJFjf5WjBDoC7LGonaVu-185" style="edgeStyle=orthogonalEdgeStyle;shape=connector;rounded=0;orthogonalLoop=1;jettySize=auto;html=1;exitX=0.92;exitY=0.5;exitDx=0;exitDy=0;exitPerimeter=0;strokeColor=#b85450;align=center;verticalAlign=middle;fontFamily=Helvetica;fontSize=10;fontColor=default;labelBackgroundColor=default;resizable=0;endArrow=none;endFill=0;fillColor=#f8cecc;" parent="1" source="FJFjf5WjBDoC7LGonaVu-104" edge="1">
          <mxGeometry relative="1" as="geometry">
            <mxPoint x="795.1" y="870" as="targetPoint" />
          </mxGeometry>
        </mxCell>
        <mxCell id="FJFjf5WjBDoC7LGonaVu-224" value="&lt;span style=&quot;&quot;&gt;ForwardBE&lt;/span&gt;" style="edgeLabel;html=1;align=center;verticalAlign=middle;resizable=0;points=[];fontFamily=Helvetica;fontSize=10;fontColor=#FF0000;labelBackgroundColor=none;fillColor=none;gradientColor=none;horizontal=0;" parent="FJFjf5WjBDoC7LGonaVu-185" vertex="1" connectable="0">
          <mxGeometry x="0.9308" y="1" relative="1" as="geometry">
            <mxPoint x="-9" y="-19" as="offset" />
          </mxGeometry>
        </mxCell>
        <mxCell id="FJFjf5WjBDoC7LGonaVu-104" value="00&lt;div style=&quot;font-size: 9px;&quot;&gt;01&lt;/div&gt;&lt;div style=&quot;font-size: 9px;&quot;&gt;11&lt;/div&gt;" style="shape=trapezoid;perimeter=trapezoidPerimeter;whiteSpace=wrap;html=1;fixedSize=1;points=[[0.08,0.5,0,0,0],[0.25,1,0,0,0],[0.5,0,0,0,0],[0.5,1,0,0,0],[0.75,1,0,0,0],[0.92,0.5,0,0,0]];strokeWidth=2;rotation=90;size=5;horizontal=0;fontSize=9;spacingRight=0;align=left;spacingLeft=1;" parent="1" vertex="1">
          <mxGeometry x="775.16" y="569.98" width="40" height="20" as="geometry" />
        </mxCell>
        <mxCell id="FJFjf5WjBDoC7LGonaVu-106" style="edgeStyle=orthogonalEdgeStyle;rounded=0;orthogonalLoop=1;jettySize=auto;html=1;exitX=1;exitY=0.2;exitDx=0;exitDy=0;exitPerimeter=0;entryX=0.5;entryY=0;entryDx=0;entryDy=0;entryPerimeter=0;fillColor=#dae8fc;strokeColor=#6c8ebf;endArrow=none;endFill=0;" parent="1" source="FJFjf5WjBDoC7LGonaVu-44" target="is0OGJ1ILdpOx4lDECwO-62" edge="1">
          <mxGeometry relative="1" as="geometry">
            <mxPoint x="495.1" y="495" as="targetPoint" />
            <Array as="points">
              <mxPoint x="1250.1" y="310" />
              <mxPoint x="1250.1" y="200" />
              <mxPoint x="500.1" y="200" />
            </Array>
          </mxGeometry>
        </mxCell>
        <mxCell id="FJFjf5WjBDoC7LGonaVu-107" value="RegWriteD" style="edgeLabel;html=1;align=left;verticalAlign=middle;resizable=0;points=[];fontColor=#006AFF;labelBackgroundColor=none;" parent="FJFjf5WjBDoC7LGonaVu-106" vertex="1" connectable="0">
          <mxGeometry x="-0.9028" y="3" relative="1" as="geometry">
            <mxPoint x="-68" y="-7" as="offset" />
          </mxGeometry>
        </mxCell>
        <mxCell id="FJFjf5WjBDoC7LGonaVu-252" value="&lt;span style=&quot;color: rgb(0, 106, 255); font-size: 11px;&quot;&gt;RegWriteE&lt;/span&gt;" style="edgeLabel;html=1;align=left;verticalAlign=middle;resizable=0;points=[];fontFamily=Helvetica;fontSize=10;fontColor=default;labelBackgroundColor=none;fillColor=none;gradientColor=none;" parent="FJFjf5WjBDoC7LGonaVu-106" vertex="1" connectable="0">
          <mxGeometry x="-0.7938" y="-4" relative="1" as="geometry">
            <mxPoint x="-23" y="-14" as="offset" />
          </mxGeometry>
        </mxCell>
        <mxCell id="FJFjf5WjBDoC7LGonaVu-269" value="&lt;span style=&quot;color: rgb(0, 106, 255); font-size: 11px;&quot;&gt;RegWriteM&lt;/span&gt;" style="edgeLabel;html=1;align=left;verticalAlign=middle;resizable=0;points=[];fontFamily=Helvetica;fontSize=10;fontColor=default;labelBackgroundColor=none;fillColor=none;gradientColor=none;" parent="FJFjf5WjBDoC7LGonaVu-106" vertex="1" connectable="0">
          <mxGeometry x="-0.4279" y="1" relative="1" as="geometry">
            <mxPoint x="-50" y="-9" as="offset" />
          </mxGeometry>
        </mxCell>
        <mxCell id="FJFjf5WjBDoC7LGonaVu-277" value="&lt;span style=&quot;color: rgb(0, 106, 255); font-size: 11px;&quot;&gt;RegWriteW&lt;/span&gt;" style="edgeLabel;html=1;align=left;verticalAlign=middle;resizable=0;points=[];fontFamily=Helvetica;fontSize=10;fontColor=default;labelBackgroundColor=none;fillColor=none;gradientColor=none;" parent="FJFjf5WjBDoC7LGonaVu-106" vertex="1" connectable="0">
          <mxGeometry x="-0.2374" y="1" relative="1" as="geometry">
            <mxPoint x="-54" y="-9" as="offset" />
          </mxGeometry>
        </mxCell>
        <mxCell id="FJFjf5WjBDoC7LGonaVu-109" style="edgeStyle=orthogonalEdgeStyle;rounded=0;orthogonalLoop=1;jettySize=auto;html=1;exitX=1;exitY=0.5;exitDx=0;exitDy=0;exitPerimeter=0;entryX=0;entryY=0.8;entryDx=0;entryDy=0;entryPerimeter=0;endArrow=none;endFill=0;" parent="1" source="is0OGJ1ILdpOx4lDECwO-60" target="is0OGJ1ILdpOx4lDECwO-98" edge="1">
          <mxGeometry relative="1" as="geometry">
            <Array as="points">
              <mxPoint x="830.1" y="713" />
              <mxPoint x="830.1" y="665" />
            </Array>
          </mxGeometry>
        </mxCell>
        <mxCell id="FJFjf5WjBDoC7LGonaVu-130" value="ImmExtD" style="edgeLabel;html=1;align=left;verticalAlign=middle;resizable=0;points=[];fontFamily=Helvetica;fontSize=10;fontColor=default;labelBackgroundColor=none;fillColor=none;gradientColor=none;" parent="FJFjf5WjBDoC7LGonaVu-109" vertex="1" connectable="0">
          <mxGeometry x="-0.5859" y="1" relative="1" as="geometry">
            <mxPoint x="-37" y="-7" as="offset" />
          </mxGeometry>
        </mxCell>
        <mxCell id="FJFjf5WjBDoC7LGonaVu-110" style="edgeStyle=orthogonalEdgeStyle;rounded=0;orthogonalLoop=1;jettySize=auto;html=1;exitX=0.75;exitY=1;exitDx=0;exitDy=0;exitPerimeter=0;entryX=1;entryY=0.5;entryDx=0;entryDy=0;entryPerimeter=0;endArrow=none;endFill=0;" parent="1" source="FJFjf5WjBDoC7LGonaVu-99" target="is0OGJ1ILdpOx4lDECwO-43" edge="1">
          <mxGeometry relative="1" as="geometry">
            <Array as="points">
              <mxPoint x="1220.1" y="560" />
              <mxPoint x="1220.1" y="740" />
              <mxPoint x="340.1" y="740" />
              <mxPoint x="340.1" y="680" />
            </Array>
          </mxGeometry>
        </mxCell>
        <mxCell id="FJFjf5WjBDoC7LGonaVu-129" value="PCPlus4D" style="edgeLabel;html=1;align=left;verticalAlign=middle;resizable=0;points=[];fontFamily=Helvetica;fontSize=10;fontColor=default;labelBackgroundColor=none;fillColor=none;gradientColor=none;" parent="FJFjf5WjBDoC7LGonaVu-110" vertex="1" connectable="0">
          <mxGeometry x="0.3626" y="-3" relative="1" as="geometry">
            <mxPoint x="-50" y="-7" as="offset" />
          </mxGeometry>
        </mxCell>
        <mxCell id="FJFjf5WjBDoC7LGonaVu-145" value="PCPlus4W" style="edgeLabel;html=1;align=center;verticalAlign=middle;resizable=0;points=[];fontFamily=Helvetica;fontSize=10;fontColor=default;labelBackgroundColor=none;fillColor=none;gradientColor=none;horizontal=0;" parent="FJFjf5WjBDoC7LGonaVu-110" vertex="1" connectable="0">
          <mxGeometry x="-0.6227" y="5" relative="1" as="geometry">
            <mxPoint x="25" y="-30" as="offset" />
          </mxGeometry>
        </mxCell>
        <mxCell id="FJFjf5WjBDoC7LGonaVu-282" value="PCPlus4M" style="edgeLabel;html=1;align=left;verticalAlign=middle;resizable=0;points=[];fontFamily=Helvetica;fontSize=10;fontColor=default;labelBackgroundColor=none;fillColor=none;gradientColor=none;" parent="FJFjf5WjBDoC7LGonaVu-110" vertex="1" connectable="0">
          <mxGeometry x="-0.3588" relative="1" as="geometry">
            <mxPoint x="-13" y="-10" as="offset" />
          </mxGeometry>
        </mxCell>
        <mxCell id="FJFjf5WjBDoC7LGonaVu-284" value="&lt;span style=&quot;text-align: left;&quot;&gt;PCPlus4E&lt;/span&gt;" style="edgeLabel;html=1;align=center;verticalAlign=middle;resizable=0;points=[];fontFamily=Helvetica;fontSize=10;fontColor=default;labelBackgroundColor=none;fillColor=none;gradientColor=none;" parent="FJFjf5WjBDoC7LGonaVu-110" vertex="1" connectable="0">
          <mxGeometry x="-0.0238" relative="1" as="geometry">
            <mxPoint x="-19" y="-10" as="offset" />
          </mxGeometry>
        </mxCell>
        <mxCell id="FJFjf5WjBDoC7LGonaVu-111" style="edgeStyle=orthogonalEdgeStyle;shape=connector;rounded=0;orthogonalLoop=1;jettySize=auto;html=1;exitX=1;exitY=0.5;exitDx=0;exitDy=0;exitPerimeter=0;entryX=0.75;entryY=1;entryDx=0;entryDy=0;entryPerimeter=0;strokeColor=default;align=center;verticalAlign=middle;fontFamily=Helvetica;fontSize=10;fontColor=default;labelBackgroundColor=default;resizable=0;endArrow=none;endFill=0;" parent="1" source="is0OGJ1ILdpOx4lDECwO-98" target="-DspEDwFLZWsZTNbwFcD-6" edge="1">
          <mxGeometry relative="1" as="geometry">
            <Array as="points">
              <mxPoint x="890.1" y="647" />
              <mxPoint x="890.1" y="770" />
              <mxPoint x="140.1" y="770" />
              <mxPoint x="140.1" y="540" />
            </Array>
          </mxGeometry>
        </mxCell>
        <mxCell id="FJFjf5WjBDoC7LGonaVu-226" value="PCTargetE" style="edgeLabel;html=1;align=center;verticalAlign=middle;resizable=0;points=[];fontFamily=Helvetica;fontSize=10;fontColor=default;labelBackgroundColor=none;fillColor=none;gradientColor=none;" parent="FJFjf5WjBDoC7LGonaVu-111" vertex="1" connectable="0">
          <mxGeometry x="-0.7227" relative="1" as="geometry">
            <mxPoint x="-31" y="-10" as="offset" />
          </mxGeometry>
        </mxCell>
        <mxCell id="FJFjf5WjBDoC7LGonaVu-146" style="edgeStyle=orthogonalEdgeStyle;shape=connector;rounded=0;orthogonalLoop=1;jettySize=auto;html=1;exitX=0.5;exitY=1;exitDx=0;exitDy=0;exitPerimeter=0;entryX=0.5;entryY=0;entryDx=0;entryDy=0;entryPerimeter=0;strokeColor=default;align=center;verticalAlign=middle;fontFamily=Helvetica;fontSize=10;fontColor=default;labelBackgroundColor=default;resizable=0;endArrow=none;endFill=0;" parent="1" source="FJFjf5WjBDoC7LGonaVu-102" target="FJFjf5WjBDoC7LGonaVu-99" edge="1">
          <mxGeometry relative="1" as="geometry">
            <Array as="points">
              <mxPoint x="740.1" y="540" />
              <mxPoint x="740.1" y="810" />
              <mxPoint x="1280.1" y="810" />
              <mxPoint x="1280.1" y="550" />
            </Array>
          </mxGeometry>
        </mxCell>
        <mxCell id="FJFjf5WjBDoC7LGonaVu-286" value="ResultW" style="edgeLabel;html=1;align=center;verticalAlign=middle;resizable=0;points=[];fontFamily=Helvetica;fontSize=10;fontColor=default;labelBackgroundColor=none;fillColor=none;gradientColor=none;" parent="FJFjf5WjBDoC7LGonaVu-146" vertex="1" connectable="0">
          <mxGeometry x="0.4479" y="2" relative="1" as="geometry">
            <mxPoint x="2" y="-8" as="offset" />
          </mxGeometry>
        </mxCell>
        <mxCell id="FJFjf5WjBDoC7LGonaVu-153" style="edgeStyle=orthogonalEdgeStyle;shape=connector;rounded=0;orthogonalLoop=1;jettySize=auto;html=1;exitX=0.75;exitY=1;exitDx=0;exitDy=0;exitPerimeter=0;entryX=0.75;entryY=1;entryDx=0;entryDy=0;entryPerimeter=0;strokeColor=default;align=center;verticalAlign=middle;fontFamily=Helvetica;fontSize=10;fontColor=default;labelBackgroundColor=default;resizable=0;endArrow=none;endFill=0;" parent="1" source="FJFjf5WjBDoC7LGonaVu-104" target="FJFjf5WjBDoC7LGonaVu-102" edge="1">
          <mxGeometry relative="1" as="geometry">
            <Array as="points">
              <mxPoint x="750.16" y="589.98" />
              <mxPoint x="750.16" y="549.98" />
            </Array>
          </mxGeometry>
        </mxCell>
        <mxCell id="FJFjf5WjBDoC7LGonaVu-154" style="edgeStyle=orthogonalEdgeStyle;shape=connector;rounded=0;orthogonalLoop=1;jettySize=auto;html=1;exitX=0.5;exitY=1;exitDx=0;exitDy=0;exitPerimeter=0;entryX=0.5;entryY=1;entryDx=0;entryDy=0;entryPerimeter=0;strokeColor=default;align=center;verticalAlign=middle;fontFamily=Helvetica;fontSize=10;fontColor=default;labelBackgroundColor=default;resizable=0;endArrow=none;endFill=0;" parent="1" source="FJFjf5WjBDoC7LGonaVu-102" target="FJFjf5WjBDoC7LGonaVu-104" edge="1">
          <mxGeometry relative="1" as="geometry" />
        </mxCell>
        <mxCell id="FJFjf5WjBDoC7LGonaVu-166" value="" style="endArrow=none;html=1;rounded=0;strokeColor=#b85450;align=center;verticalAlign=middle;fontFamily=Helvetica;fontSize=10;fontColor=#d7817d;labelBackgroundColor=default;resizable=0;entryX=0.5;entryY=1;entryDx=0;entryDy=0;entryPerimeter=0;fillColor=#f8cecc;" parent="1" target="is0OGJ1ILdpOx4lDECwO-8" edge="1">
          <mxGeometry width="50" height="50" relative="1" as="geometry">
            <mxPoint x="225.1" y="870" as="sourcePoint" />
            <mxPoint x="235.1" y="585" as="targetPoint" />
          </mxGeometry>
        </mxCell>
        <mxCell id="FJFjf5WjBDoC7LGonaVu-212" value="&lt;font color=&quot;#ff0000&quot;&gt;StallF&lt;/font&gt;" style="edgeLabel;html=1;align=center;verticalAlign=middle;resizable=0;points=[];fontFamily=Helvetica;fontSize=10;fontColor=#d7817d;labelBackgroundColor=none;fillColor=none;gradientColor=none;horizontal=0;" parent="FJFjf5WjBDoC7LGonaVu-166" vertex="1" connectable="0">
          <mxGeometry x="-0.8433" y="2" relative="1" as="geometry">
            <mxPoint x="-8" y="8" as="offset" />
          </mxGeometry>
        </mxCell>
        <mxCell id="FJFjf5WjBDoC7LGonaVu-167" value="" style="endArrow=none;html=1;rounded=0;strokeColor=#b85450;align=center;verticalAlign=middle;fontFamily=Helvetica;fontSize=10;fontColor=default;labelBackgroundColor=default;resizable=0;edgeStyle=orthogonalEdgeStyle;entryX=0.5;entryY=1;entryDx=0;entryDy=0;entryPerimeter=0;fillColor=#f8cecc;" parent="1" target="is0OGJ1ILdpOx4lDECwO-26" edge="1">
          <mxGeometry width="50" height="50" relative="1" as="geometry">
            <mxPoint x="360.1" y="870" as="sourcePoint" />
            <mxPoint x="360.1" y="790" as="targetPoint" />
            <Array as="points">
              <mxPoint x="360.1" y="790" />
              <mxPoint x="365.1" y="790" />
            </Array>
          </mxGeometry>
        </mxCell>
        <mxCell id="FJFjf5WjBDoC7LGonaVu-213" value="StallD" style="edgeLabel;html=1;align=center;verticalAlign=middle;resizable=0;points=[];fontFamily=Helvetica;fontSize=10;fontColor=#FF0000;labelBackgroundColor=none;fillColor=none;gradientColor=none;horizontal=0;" parent="FJFjf5WjBDoC7LGonaVu-167" vertex="1" connectable="0">
          <mxGeometry x="-0.6924" y="-1" relative="1" as="geometry">
            <mxPoint x="-11" as="offset" />
          </mxGeometry>
        </mxCell>
        <mxCell id="FJFjf5WjBDoC7LGonaVu-169" style="edgeStyle=orthogonalEdgeStyle;rounded=0;orthogonalLoop=1;jettySize=auto;html=1;exitX=1;exitY=0.2;exitDx=0;exitDy=0;exitPerimeter=0;endArrow=none;endFill=0;fillColor=#f8cecc;strokeColor=#b85450;" parent="1" source="is0OGJ1ILdpOx4lDECwO-14" edge="1">
          <mxGeometry relative="1" as="geometry">
            <mxPoint x="345.1" y="535" as="sourcePoint" />
            <mxPoint x="680.1" y="870" as="targetPoint" />
            <Array as="points">
              <mxPoint x="410.1" y="530" />
              <mxPoint x="410.1" y="670" />
              <mxPoint x="680.1" y="670" />
            </Array>
          </mxGeometry>
        </mxCell>
        <mxCell id="FJFjf5WjBDoC7LGonaVu-171" value="Rs2E" style="edgeLabel;html=1;align=left;verticalAlign=middle;resizable=0;points=[];fontFamily=Helvetica;fontSize=10;fontColor=default;labelBackgroundColor=none;fillColor=none;gradientColor=none;" parent="FJFjf5WjBDoC7LGonaVu-169" vertex="1" connectable="0">
          <mxGeometry x="0.4259" y="-2" relative="1" as="geometry">
            <mxPoint x="-23" y="-15" as="offset" />
          </mxGeometry>
        </mxCell>
        <mxCell id="FJFjf5WjBDoC7LGonaVu-174" value="Rs2D" style="edgeLabel;html=1;align=left;verticalAlign=middle;resizable=0;points=[];fontFamily=Helvetica;fontSize=10;fontColor=default;labelBackgroundColor=none;fillColor=none;gradientColor=none;" parent="FJFjf5WjBDoC7LGonaVu-169" vertex="1" connectable="0">
          <mxGeometry x="0.2447" y="1" relative="1" as="geometry">
            <mxPoint x="-33" y="-9" as="offset" />
          </mxGeometry>
        </mxCell>
        <mxCell id="FJFjf5WjBDoC7LGonaVu-220" value="Rs2E" style="edgeLabel;html=1;align=center;verticalAlign=middle;resizable=0;points=[];fontFamily=Helvetica;fontSize=10;fontColor=#FF0000;labelBackgroundColor=none;fillColor=none;gradientColor=none;horizontal=0;" parent="FJFjf5WjBDoC7LGonaVu-169" vertex="1" connectable="0">
          <mxGeometry x="0.9549" y="-1" relative="1" as="geometry">
            <mxPoint x="-7" as="offset" />
          </mxGeometry>
        </mxCell>
        <mxCell id="FJFjf5WjBDoC7LGonaVu-175" style="edgeStyle=orthogonalEdgeStyle;rounded=0;orthogonalLoop=1;jettySize=auto;html=1;exitX=1;exitY=0.2;exitDx=0;exitDy=0;exitPerimeter=0;endArrow=none;endFill=0;strokeColor=#b85450;fillColor=#f8cecc;" parent="1" source="is0OGJ1ILdpOx4lDECwO-14" edge="1">
          <mxGeometry relative="1" as="geometry">
            <mxPoint x="345.1" y="535" as="sourcePoint" />
            <mxPoint x="560.1" y="870" as="targetPoint" />
            <Array as="points">
              <mxPoint x="410.1" y="530" />
              <mxPoint x="410.1" y="650" />
              <mxPoint x="560.1" y="650" />
            </Array>
          </mxGeometry>
        </mxCell>
        <mxCell id="FJFjf5WjBDoC7LGonaVu-215" value="Rs1D" style="edgeLabel;html=1;align=center;verticalAlign=middle;resizable=0;points=[];fontFamily=Helvetica;fontSize=10;fontColor=#FF0000;labelBackgroundColor=none;fillColor=none;gradientColor=none;horizontal=0;" parent="FJFjf5WjBDoC7LGonaVu-175" vertex="1" connectable="0">
          <mxGeometry x="0.9447" relative="1" as="geometry">
            <mxPoint x="-8" as="offset" />
          </mxGeometry>
        </mxCell>
        <mxCell id="FJFjf5WjBDoC7LGonaVu-177" style="edgeStyle=orthogonalEdgeStyle;rounded=0;orthogonalLoop=1;jettySize=auto;html=1;endArrow=none;endFill=0;strokeColor=#b85450;exitX=1;exitY=0.2;exitDx=0;exitDy=0;exitPerimeter=0;fillColor=#f8cecc;" parent="1" source="is0OGJ1ILdpOx4lDECwO-14" edge="1">
          <mxGeometry relative="1" as="geometry">
            <mxPoint x="350.1" y="505" as="sourcePoint" />
            <mxPoint x="700.1" y="870" as="targetPoint" />
            <Array as="points">
              <mxPoint x="410.1" y="530" />
              <mxPoint x="410.1" y="650" />
              <mxPoint x="700.1" y="650" />
              <mxPoint x="700.1" y="850" />
            </Array>
          </mxGeometry>
        </mxCell>
        <mxCell id="FJFjf5WjBDoC7LGonaVu-178" value="Rs1E" style="edgeLabel;html=1;align=left;verticalAlign=middle;resizable=0;points=[];fontFamily=Helvetica;fontSize=10;fontColor=default;labelBackgroundColor=none;fillColor=none;gradientColor=none;" parent="FJFjf5WjBDoC7LGonaVu-177" vertex="1" connectable="0">
          <mxGeometry x="0.3248" y="1" relative="1" as="geometry">
            <mxPoint x="-29" y="-9" as="offset" />
          </mxGeometry>
        </mxCell>
        <mxCell id="FJFjf5WjBDoC7LGonaVu-179" value="Rs1D" style="edgeLabel;html=1;align=left;verticalAlign=middle;resizable=0;points=[];fontFamily=Helvetica;fontSize=10;fontColor=default;labelBackgroundColor=none;fillColor=none;gradientColor=none;" parent="FJFjf5WjBDoC7LGonaVu-177" vertex="1" connectable="0">
          <mxGeometry x="0.1249" relative="1" as="geometry">
            <mxPoint x="-24" y="-10" as="offset" />
          </mxGeometry>
        </mxCell>
        <mxCell id="FJFjf5WjBDoC7LGonaVu-221" value="Rs1E" style="edgeLabel;html=1;align=center;verticalAlign=middle;resizable=0;points=[];fontFamily=Helvetica;fontSize=10;fontColor=#FF0000;labelBackgroundColor=none;fillColor=none;gradientColor=none;horizontal=0;" parent="FJFjf5WjBDoC7LGonaVu-177" vertex="1" connectable="0">
          <mxGeometry x="0.9617" y="-1" relative="1" as="geometry">
            <mxPoint x="-7" y="-2" as="offset" />
          </mxGeometry>
        </mxCell>
        <mxCell id="FJFjf5WjBDoC7LGonaVu-182" style="edgeStyle=orthogonalEdgeStyle;shape=connector;rounded=0;orthogonalLoop=1;jettySize=auto;html=1;exitX=0.75;exitY=1;exitDx=0;exitDy=0;exitPerimeter=0;entryX=0;entryY=0.8;entryDx=0;entryDy=0;entryPerimeter=0;strokeColor=default;align=center;verticalAlign=middle;fontFamily=Helvetica;fontSize=10;fontColor=default;labelBackgroundColor=default;resizable=0;endArrow=none;endFill=0;" parent="1" source="FJFjf5WjBDoC7LGonaVu-13" target="is0OGJ1ILdpOx4lDECwO-98" edge="1">
          <mxGeometry relative="1" as="geometry">
            <Array as="points">
              <mxPoint x="830.1" y="579" />
              <mxPoint x="830.1" y="665" />
            </Array>
          </mxGeometry>
        </mxCell>
        <mxCell id="FJFjf5WjBDoC7LGonaVu-187" style="edgeStyle=orthogonalEdgeStyle;rounded=0;orthogonalLoop=1;jettySize=auto;html=1;endArrow=none;endFill=0;exitX=1;exitY=0.2;exitDx=0;exitDy=0;exitPerimeter=0;fillColor=#f8cecc;strokeColor=#b85450;" parent="1" source="is0OGJ1ILdpOx4lDECwO-14" edge="1">
          <mxGeometry relative="1" as="geometry">
            <mxPoint x="345.1" y="505" as="sourcePoint" />
            <mxPoint x="1020.0999999999999" y="870" as="targetPoint" />
            <Array as="points">
              <mxPoint x="410.1" y="530" />
              <mxPoint x="410.1" y="690" />
              <mxPoint x="1020.0999999999999" y="690" />
            </Array>
          </mxGeometry>
        </mxCell>
        <mxCell id="FJFjf5WjBDoC7LGonaVu-190" value="RdD" style="edgeLabel;html=1;align=left;verticalAlign=middle;resizable=0;points=[];fontFamily=Helvetica;fontSize=10;fontColor=default;labelBackgroundColor=none;fillColor=none;gradientColor=none;" parent="FJFjf5WjBDoC7LGonaVu-187" vertex="1" connectable="0">
          <mxGeometry x="-0.1395" relative="1" as="geometry">
            <mxPoint x="-29" y="-10" as="offset" />
          </mxGeometry>
        </mxCell>
        <mxCell id="FJFjf5WjBDoC7LGonaVu-227" value="RdM" style="edgeLabel;html=1;align=center;verticalAlign=middle;resizable=0;points=[];fontFamily=Helvetica;fontSize=10;fontColor=#FF0000;labelBackgroundColor=none;fillColor=none;gradientColor=none;horizontal=0;" parent="FJFjf5WjBDoC7LGonaVu-187" vertex="1" connectable="0">
          <mxGeometry x="0.9678" y="-2" relative="1" as="geometry">
            <mxPoint x="-8" as="offset" />
          </mxGeometry>
        </mxCell>
        <mxCell id="FJFjf5WjBDoC7LGonaVu-194" style="edgeStyle=orthogonalEdgeStyle;rounded=0;orthogonalLoop=1;jettySize=auto;html=1;endArrow=none;endFill=0;exitX=1;exitY=0.2;exitDx=0;exitDy=0;exitPerimeter=0;fillColor=#f8cecc;strokeColor=#b85450;" parent="1" source="is0OGJ1ILdpOx4lDECwO-14" edge="1">
          <mxGeometry relative="1" as="geometry">
            <mxPoint x="350.1" y="500" as="sourcePoint" />
            <mxPoint x="1180.1" y="870" as="targetPoint" />
            <Array as="points">
              <mxPoint x="410.1" y="530" />
              <mxPoint x="410.1" y="690" />
              <mxPoint x="1180.1" y="690" />
            </Array>
          </mxGeometry>
        </mxCell>
        <mxCell id="FJFjf5WjBDoC7LGonaVu-197" value="RdE" style="edgeLabel;html=1;align=left;verticalAlign=middle;resizable=0;points=[];fontFamily=Helvetica;fontSize=10;fontColor=default;labelBackgroundColor=none;fillColor=none;gradientColor=none;" parent="FJFjf5WjBDoC7LGonaVu-194" vertex="1" connectable="0">
          <mxGeometry x="-0.1492" relative="1" as="geometry">
            <mxPoint x="-27" y="-10" as="offset" />
          </mxGeometry>
        </mxCell>
        <mxCell id="FJFjf5WjBDoC7LGonaVu-229" value="RdW" style="edgeLabel;html=1;align=center;verticalAlign=middle;resizable=0;points=[];fontFamily=Helvetica;fontSize=10;fontColor=#FF0000;labelBackgroundColor=none;fillColor=none;gradientColor=none;horizontal=0;" parent="FJFjf5WjBDoC7LGonaVu-194" vertex="1" connectable="0">
          <mxGeometry x="0.9696" y="1" relative="1" as="geometry">
            <mxPoint x="-11" y="3" as="offset" />
          </mxGeometry>
        </mxCell>
        <mxCell id="FJFjf5WjBDoC7LGonaVu-62" style="edgeStyle=orthogonalEdgeStyle;rounded=0;orthogonalLoop=1;jettySize=auto;html=1;exitX=0;exitY=0.69;exitDx=0;exitDy=0;exitPerimeter=0;entryX=1;entryY=0.2;entryDx=0;entryDy=0;entryPerimeter=0;endArrow=none;endFill=0;" parent="1" source="is0OGJ1ILdpOx4lDECwO-60" target="is0OGJ1ILdpOx4lDECwO-14" edge="1">
          <mxGeometry relative="1" as="geometry">
            <Array as="points">
              <mxPoint x="410.1" y="719" />
              <mxPoint x="410.1" y="530" />
            </Array>
          </mxGeometry>
        </mxCell>
        <mxCell id="FJFjf5WjBDoC7LGonaVu-128" value="31:7" style="edgeLabel;html=1;align=center;verticalAlign=middle;resizable=0;points=[];fontFamily=Helvetica;fontSize=10;fontColor=default;labelBackgroundColor=none;fillColor=none;gradientColor=none;" parent="FJFjf5WjBDoC7LGonaVu-62" vertex="1" connectable="0">
          <mxGeometry x="-0.8767" y="-1" relative="1" as="geometry">
            <mxPoint y="-8" as="offset" />
          </mxGeometry>
        </mxCell>
        <mxCell id="FJFjf5WjBDoC7LGonaVu-143" style="edgeStyle=orthogonalEdgeStyle;shape=connector;rounded=0;orthogonalLoop=1;jettySize=auto;html=1;exitX=0;exitY=0.6;exitDx=0;exitDy=0;exitPerimeter=0;strokeColor=default;align=center;verticalAlign=middle;fontFamily=Helvetica;fontSize=10;fontColor=default;labelBackgroundColor=default;resizable=0;endArrow=none;endFill=0;entryX=1;entryY=0.2;entryDx=0;entryDy=0;entryPerimeter=0;" parent="1" source="is0OGJ1ILdpOx4lDECwO-62" target="is0OGJ1ILdpOx4lDECwO-14" edge="1">
          <mxGeometry relative="1" as="geometry">
            <mxPoint x="355.1" y="540" as="targetPoint" />
            <Array as="points">
              <mxPoint x="400.1" y="570" />
              <mxPoint x="400.1" y="790" />
              <mxPoint x="1180.1" y="790" />
              <mxPoint x="1180.1" y="690" />
              <mxPoint x="410.1" y="690" />
              <mxPoint x="410.1" y="530" />
            </Array>
          </mxGeometry>
        </mxCell>
        <mxCell id="FJFjf5WjBDoC7LGonaVu-144" value="RdW" style="edgeLabel;html=1;align=center;verticalAlign=middle;resizable=0;points=[];fontFamily=Helvetica;fontSize=10;fontColor=default;labelBackgroundColor=none;fillColor=none;gradientColor=none;" parent="FJFjf5WjBDoC7LGonaVu-143" vertex="1" connectable="0">
          <mxGeometry x="0.0807" y="-3" relative="1" as="geometry">
            <mxPoint x="16" y="-7" as="offset" />
          </mxGeometry>
        </mxCell>
        <mxCell id="FJFjf5WjBDoC7LGonaVu-283" value="RdM" style="edgeLabel;html=1;align=left;verticalAlign=middle;resizable=0;points=[];fontFamily=Helvetica;fontSize=10;fontColor=default;labelBackgroundColor=none;fillColor=none;gradientColor=none;" parent="FJFjf5WjBDoC7LGonaVu-143" vertex="1" connectable="0">
          <mxGeometry x="0.1856" y="1" relative="1" as="geometry">
            <mxPoint x="-17" y="-11" as="offset" />
          </mxGeometry>
        </mxCell>
        <mxCell id="FJFjf5WjBDoC7LGonaVu-118" value="" style="group" parent="1" vertex="1" connectable="0">
          <mxGeometry x="360.1" y="510" width="20" height="255" as="geometry" />
        </mxCell>
        <mxCell id="FJFjf5WjBDoC7LGonaVu-168" style="edgeStyle=orthogonalEdgeStyle;shape=connector;rounded=0;orthogonalLoop=1;jettySize=auto;html=1;exitX=0.75;exitY=1;exitDx=0;exitDy=0;exitPerimeter=0;strokeColor=#b85450;align=center;verticalAlign=middle;fontFamily=Helvetica;fontSize=10;fontColor=default;labelBackgroundColor=default;resizable=0;endArrow=none;endFill=0;fillColor=#f8cecc;" parent="FJFjf5WjBDoC7LGonaVu-118" source="is0OGJ1ILdpOx4lDECwO-23" edge="1">
          <mxGeometry relative="1" as="geometry">
            <mxPoint x="20" y="360" as="targetPoint" />
            <Array as="points">
              <mxPoint x="15" y="280" />
              <mxPoint x="20" y="280" />
            </Array>
          </mxGeometry>
        </mxCell>
        <mxCell id="FJFjf5WjBDoC7LGonaVu-214" value="FlushD" style="edgeLabel;html=1;align=center;verticalAlign=middle;resizable=0;points=[];fontFamily=Helvetica;fontSize=10;fontColor=#FF0000;labelBackgroundColor=none;fillColor=none;gradientColor=none;horizontal=0;" parent="FJFjf5WjBDoC7LGonaVu-168" vertex="1" connectable="0">
          <mxGeometry x="0.6589" y="2" relative="1" as="geometry">
            <mxPoint x="-10" as="offset" />
          </mxGeometry>
        </mxCell>
        <mxCell id="is0OGJ1ILdpOx4lDECwO-23" value="" style="rounded=0;whiteSpace=wrap;html=1;strokeWidth=2;points=[[0,0.5,0,0,0],[0.5,0,0,0,0],[0.75,1,0,0,0],[1,0.5,0,0,0]];" parent="FJFjf5WjBDoC7LGonaVu-118" vertex="1">
          <mxGeometry width="20" height="240" as="geometry" />
        </mxCell>
        <mxCell id="is0OGJ1ILdpOx4lDECwO-24" value="" style="triangle;whiteSpace=wrap;html=1;rotation=90;fontColor=default;labelBorderColor=none;perimeterSpacing=0;strokeColor=default;rounded=0;shadow=0;points=[[0,0.5,0,0,0]];" parent="FJFjf5WjBDoC7LGonaVu-118" vertex="1">
          <mxGeometry x="5" y="-5" width="10" height="20" as="geometry" />
        </mxCell>
        <mxCell id="is0OGJ1ILdpOx4lDECwO-25" value="EN" style="text;html=1;align=center;verticalAlign=middle;whiteSpace=wrap;rounded=0;rotation=-90;fontSize=8;points=[];" parent="FJFjf5WjBDoC7LGonaVu-118" vertex="1">
          <mxGeometry y="227" width="12.5" height="10" as="geometry" />
        </mxCell>
        <mxCell id="is0OGJ1ILdpOx4lDECwO-26" value="" style="ellipse;whiteSpace=wrap;html=1;aspect=fixed;points=[[0.5,1,0,0,0]];" parent="FJFjf5WjBDoC7LGonaVu-118" vertex="1">
          <mxGeometry x="2" y="240" width="5" height="5" as="geometry" />
        </mxCell>
        <mxCell id="is0OGJ1ILdpOx4lDECwO-27" value="CLR" style="text;html=1;align=center;verticalAlign=middle;whiteSpace=wrap;rounded=0;rotation=-90;fontSize=8;points=[];" parent="FJFjf5WjBDoC7LGonaVu-118" vertex="1">
          <mxGeometry x="7.75" y="225" width="12.5" height="10" as="geometry" />
        </mxCell>
        <mxCell id="FJFjf5WjBDoC7LGonaVu-181" style="edgeStyle=orthogonalEdgeStyle;shape=connector;rounded=0;orthogonalLoop=1;jettySize=auto;html=1;exitX=0.75;exitY=1;exitDx=0;exitDy=0;exitPerimeter=0;strokeColor=#b85450;align=center;verticalAlign=middle;fontFamily=Helvetica;fontSize=10;fontColor=default;labelBackgroundColor=default;resizable=0;endArrow=none;endFill=0;fillColor=#f8cecc;" parent="1" source="FJFjf5WjBDoC7LGonaVu-121" edge="1">
          <mxGeometry relative="1" as="geometry">
            <mxPoint x="645.1" y="870" as="targetPoint" />
          </mxGeometry>
        </mxCell>
        <mxCell id="FJFjf5WjBDoC7LGonaVu-217" value="FlushE" style="edgeLabel;html=1;align=center;verticalAlign=middle;resizable=0;points=[];fontFamily=Helvetica;fontSize=10;fontColor=#FF0000;labelBackgroundColor=none;fillColor=none;gradientColor=none;horizontal=0;" parent="FJFjf5WjBDoC7LGonaVu-181" vertex="1" connectable="0">
          <mxGeometry x="0.82" y="3" relative="1" as="geometry">
            <mxPoint x="-13" y="-8" as="offset" />
          </mxGeometry>
        </mxCell>
        <mxCell id="FJFjf5WjBDoC7LGonaVu-280" value="" style="group" parent="1" vertex="1" connectable="0">
          <mxGeometry x="955.1" y="269.98" width="30" height="480" as="geometry" />
        </mxCell>
        <mxCell id="FJFjf5WjBDoC7LGonaVu-264" value="" style="rounded=0;whiteSpace=wrap;html=1;strokeWidth=1;points=[[0,0.5,0,0,0],[0.5,0,0,0,0],[0.75,1,0,0,0],[1,0.5,0,0,0]];fillColor=#dae8fc;strokeColor=#6c8ebf;" parent="FJFjf5WjBDoC7LGonaVu-280" vertex="1">
          <mxGeometry x="5" y="20" width="20" height="220" as="geometry" />
        </mxCell>
        <mxCell id="FJFjf5WjBDoC7LGonaVu-265" value="" style="triangle;whiteSpace=wrap;html=1;rotation=90;labelBorderColor=none;perimeterSpacing=0;strokeColor=#6c8ebf;rounded=0;shadow=0;points=[[0,0.5,0,0,0]];fillColor=#dae8fc;" parent="FJFjf5WjBDoC7LGonaVu-280" vertex="1">
          <mxGeometry x="10" y="15" width="10" height="20" as="geometry" />
        </mxCell>
        <mxCell id="FJFjf5WjBDoC7LGonaVu-266" value="CLK" style="text;html=1;align=center;verticalAlign=middle;whiteSpace=wrap;rounded=0;fontSize=10;points=[[0.5,1,0,0,0]];" parent="FJFjf5WjBDoC7LGonaVu-280" vertex="1">
          <mxGeometry width="30" height="15" as="geometry" />
        </mxCell>
        <mxCell id="FJFjf5WjBDoC7LGonaVu-267" style="edgeStyle=orthogonalEdgeStyle;rounded=0;orthogonalLoop=1;jettySize=auto;html=1;exitX=0.5;exitY=1;exitDx=0;exitDy=0;exitPerimeter=0;entryX=0;entryY=0.5;entryDx=0;entryDy=0;entryPerimeter=0;endArrow=none;endFill=0;" parent="FJFjf5WjBDoC7LGonaVu-280" source="FJFjf5WjBDoC7LGonaVu-266" target="FJFjf5WjBDoC7LGonaVu-265" edge="1">
          <mxGeometry relative="1" as="geometry">
            <mxPoint x="15" y="20" as="targetPoint" />
          </mxGeometry>
        </mxCell>
        <mxCell id="FJFjf5WjBDoC7LGonaVu-241" value="" style="rounded=0;whiteSpace=wrap;html=1;strokeWidth=2;points=[[0,0.5,0,0,0],[0.5,0,0,0,0],[0.75,1,0,0,0],[1,0.5,0,0,0]];" parent="FJFjf5WjBDoC7LGonaVu-280" vertex="1">
          <mxGeometry x="5" y="240" width="20" height="240" as="geometry" />
        </mxCell>
        <mxCell id="FJFjf5WjBDoC7LGonaVu-285" value="ImmExtE" style="edgeLabel;html=1;align=center;verticalAlign=middle;resizable=0;points=[];fontFamily=Helvetica;fontSize=10;fontColor=default;labelBackgroundColor=none;fillColor=none;gradientColor=none;horizontal=0;" parent="1" vertex="1" connectable="0">
          <mxGeometry x="820.1011578785038" y="664.9986447899905" as="geometry" />
        </mxCell>
        <mxCell id="FJFjf5WjBDoC7LGonaVu-296" value="" style="group" parent="1" vertex="1" connectable="0">
          <mxGeometry x="1135.1" y="270" width="30" height="479.98" as="geometry" />
        </mxCell>
        <mxCell id="FJFjf5WjBDoC7LGonaVu-273" value="" style="rounded=0;whiteSpace=wrap;html=1;strokeWidth=1;points=[[0,0.5,0,0,0],[0.5,0,0,0,0],[0.75,1,0,0,0],[1,0.5,0,0,0]];fillColor=#dae8fc;strokeColor=#6c8ebf;" parent="FJFjf5WjBDoC7LGonaVu-296" vertex="1">
          <mxGeometry x="5" y="20" width="20" height="180" as="geometry" />
        </mxCell>
        <mxCell id="FJFjf5WjBDoC7LGonaVu-274" value="" style="triangle;whiteSpace=wrap;html=1;rotation=90;labelBorderColor=none;perimeterSpacing=0;strokeColor=#6c8ebf;rounded=0;shadow=0;points=[[0,0.5,0,0,0]];fillColor=#dae8fc;" parent="FJFjf5WjBDoC7LGonaVu-296" vertex="1">
          <mxGeometry x="10" y="15" width="10" height="20" as="geometry" />
        </mxCell>
        <mxCell id="FJFjf5WjBDoC7LGonaVu-275" value="CLK" style="text;html=1;align=center;verticalAlign=middle;whiteSpace=wrap;rounded=0;fontSize=10;points=[[0.5,1,0,0,0]];" parent="FJFjf5WjBDoC7LGonaVu-296" vertex="1">
          <mxGeometry width="30" height="15" as="geometry" />
        </mxCell>
        <mxCell id="FJFjf5WjBDoC7LGonaVu-276" style="edgeStyle=orthogonalEdgeStyle;rounded=0;orthogonalLoop=1;jettySize=auto;html=1;exitX=0.5;exitY=1;exitDx=0;exitDy=0;exitPerimeter=0;entryX=0;entryY=0.5;entryDx=0;entryDy=0;entryPerimeter=0;endArrow=none;endFill=0;" parent="FJFjf5WjBDoC7LGonaVu-296" source="FJFjf5WjBDoC7LGonaVu-275" target="FJFjf5WjBDoC7LGonaVu-274" edge="1">
          <mxGeometry relative="1" as="geometry">
            <mxPoint x="15" y="20" as="targetPoint" />
          </mxGeometry>
        </mxCell>
        <mxCell id="FJFjf5WjBDoC7LGonaVu-163" value="" style="rounded=0;whiteSpace=wrap;html=1;strokeWidth=2;points=[[0,0.5,0,0,0],[0.5,0,0,0,0],[0.75,1,0,0,0],[1,0.5,0,0,0]];" parent="FJFjf5WjBDoC7LGonaVu-296" vertex="1">
          <mxGeometry x="5" y="200" width="20" height="279.98" as="geometry" />
        </mxCell>
        <mxCell id="FJFjf5WjBDoC7LGonaVu-297" value="" style="group" parent="1" vertex="1" connectable="0">
          <mxGeometry x="625.35" y="250" width="30" height="500" as="geometry" />
        </mxCell>
        <mxCell id="FJFjf5WjBDoC7LGonaVu-246" value="" style="rounded=0;whiteSpace=wrap;html=1;strokeWidth=1;points=[[0,0.5,0,0,0],[0.5,0,0,0,0],[0.75,1,0,0,0],[1,0.5,0,0,0]];fillColor=#dae8fc;strokeColor=#6c8ebf;" parent="FJFjf5WjBDoC7LGonaVu-297" vertex="1">
          <mxGeometry x="5" y="20" width="20" height="240" as="geometry" />
        </mxCell>
        <mxCell id="FJFjf5WjBDoC7LGonaVu-122" value="" style="triangle;whiteSpace=wrap;html=1;rotation=90;labelBorderColor=none;perimeterSpacing=0;strokeColor=#6c8ebf;rounded=0;shadow=0;points=[[0,0.5,0,0,0]];fillColor=#dae8fc;" parent="FJFjf5WjBDoC7LGonaVu-297" vertex="1">
          <mxGeometry x="10" y="15" width="10" height="20" as="geometry" />
        </mxCell>
        <mxCell id="FJFjf5WjBDoC7LGonaVu-247" value="CLK" style="text;html=1;align=center;verticalAlign=middle;whiteSpace=wrap;rounded=0;fontSize=10;points=[[0.5,1,0,0,0]];" parent="FJFjf5WjBDoC7LGonaVu-297" vertex="1">
          <mxGeometry width="30" height="15" as="geometry" />
        </mxCell>
        <mxCell id="FJFjf5WjBDoC7LGonaVu-248" style="edgeStyle=orthogonalEdgeStyle;rounded=0;orthogonalLoop=1;jettySize=auto;html=1;exitX=0.5;exitY=1;exitDx=0;exitDy=0;exitPerimeter=0;entryX=0;entryY=0.5;entryDx=0;entryDy=0;entryPerimeter=0;endArrow=none;endFill=0;" parent="FJFjf5WjBDoC7LGonaVu-297" source="FJFjf5WjBDoC7LGonaVu-247" target="FJFjf5WjBDoC7LGonaVu-122" edge="1">
          <mxGeometry relative="1" as="geometry">
            <mxPoint x="15" y="20" as="targetPoint" />
          </mxGeometry>
        </mxCell>
        <mxCell id="FJFjf5WjBDoC7LGonaVu-121" value="" style="rounded=0;whiteSpace=wrap;html=1;strokeWidth=2;points=[[0,0.5,0,0,0],[0.5,0,0,0,0],[0.75,1,0,0,0],[1,0.5,0,0,0]];" parent="FJFjf5WjBDoC7LGonaVu-297" vertex="1">
          <mxGeometry x="5" y="260" width="20" height="240" as="geometry" />
        </mxCell>
        <mxCell id="FJFjf5WjBDoC7LGonaVu-125" value="CLR" style="text;html=1;align=center;verticalAlign=middle;whiteSpace=wrap;rounded=0;rotation=-90;fontSize=8;points=[];" parent="FJFjf5WjBDoC7LGonaVu-297" vertex="1">
          <mxGeometry x="12.5" y="485" width="12.5" height="10" as="geometry" />
        </mxCell>
        <mxCell id="FJFjf5WjBDoC7LGonaVu-303" style="edgeStyle=orthogonalEdgeStyle;shape=connector;rounded=0;orthogonalLoop=1;jettySize=auto;html=1;exitX=1;exitY=0.5;exitDx=0;exitDy=0;exitPerimeter=0;entryX=0;entryY=0.75;entryDx=0;entryDy=0;entryPerimeter=0;strokeColor=#6c8ebf;align=center;verticalAlign=middle;fontFamily=Helvetica;fontSize=10;fontColor=default;labelBackgroundColor=default;resizable=0;endArrow=none;endFill=0;fillColor=#dae8fc;" parent="1" source="FJFjf5WjBDoC7LGonaVu-298" target="FJFjf5WjBDoC7LGonaVu-68" edge="1">
          <mxGeometry relative="1" as="geometry" />
        </mxCell>
        <mxCell id="oZ9HYkxXmGbjsZu35b1T-6" value="" style="group" parent="1" vertex="1" connectable="0">
          <mxGeometry x="839.49" y="205" width="77.60000000000002" height="49.99000000000001" as="geometry" />
        </mxCell>
        <mxCell id="FJFjf5WjBDoC7LGonaVu-298" value="" style="shape=xor;whiteSpace=wrap;html=1;points=[[0.175,0.25,0,0,0],[0.175,0.75,0,0,0],[1,0.5,0,0,0]];rotation=-180;fillColor=#dae8fc;strokeColor=#6c8ebf;" parent="oZ9HYkxXmGbjsZu35b1T-6" vertex="1">
          <mxGeometry y="5" width="30" height="40" as="geometry" />
        </mxCell>
        <mxCell id="oZ9HYkxXmGbjsZu35b1T-2" value="" style="verticalLabelPosition=bottom;verticalAlign=top;html=1;shape=mxgraph.basic.arc;startAngle=0.6009427675810284;endAngle=0.896162629132136;fillColor=#dae8fc;strokeColor=#6c8ebf;" parent="oZ9HYkxXmGbjsZu35b1T-6" vertex="1">
          <mxGeometry x="27.610000000000014" width="49.99" height="49.99" as="geometry" />
        </mxCell>
        <mxCell id="FJFjf5WjBDoC7LGonaVu-288" value="" style="triangle;whiteSpace=wrap;html=1;rotation=90;fontColor=default;labelBorderColor=none;perimeterSpacing=0;strokeColor=default;rounded=0;shadow=0;points=[];" parent="1" vertex="1">
          <mxGeometry x="1068.75" y="505" width="10" height="20" as="geometry" />
        </mxCell>
        <mxCell id="FJFjf5WjBDoC7LGonaVu-290" value="CLK" style="text;html=1;align=center;verticalAlign=middle;whiteSpace=wrap;rounded=0;fontSize=10;points=[[0.5,1,0,0,0]];labelBackgroundColor=none;" parent="1" vertex="1">
          <mxGeometry x="1058.75" y="485" width="30" height="15" as="geometry" />
        </mxCell>
        <mxCell id="FJFjf5WjBDoC7LGonaVu-291" style="edgeStyle=orthogonalEdgeStyle;rounded=0;orthogonalLoop=1;jettySize=auto;html=1;exitX=0.5;exitY=1;exitDx=0;exitDy=0;exitPerimeter=0;entryX=0;entryY=0.5;entryDx=0;entryDy=0;entryPerimeter=0;endArrow=none;endFill=0;" parent="1" source="FJFjf5WjBDoC7LGonaVu-290" target="WKUppZH8_F1f0o47jSRY-1" edge="1">
          <mxGeometry relative="1" as="geometry">
            <mxPoint x="1073.75" y="505" as="targetPoint" />
          </mxGeometry>
        </mxCell>
        <mxCell id="FJFjf5WjBDoC7LGonaVu-10" value="&lt;div style=&quot;font-size: 11px;&quot;&gt;&lt;b style=&quot;background-color: initial; font-size: 11px;&quot;&gt;Память данных&lt;/b&gt;&lt;/div&gt;" style="rounded=0;whiteSpace=wrap;html=1;strokeWidth=2;container=0;fontSize=11;verticalAlign=bottom;spacingBottom=25;points=[[0,0.4,0,0,0],[0,0.8,0,0,0],[0.66,0,0,0,0],[1,0.4,0,0,0]];" parent="1" vertex="1">
          <mxGeometry x="1058.75" y="509.98" width="60" height="100" as="geometry" />
        </mxCell>
        <mxCell id="FJFjf5WjBDoC7LGonaVu-11" value="A" style="text;html=1;align=center;verticalAlign=middle;whiteSpace=wrap;rounded=0;points=[];fontSize=10;container=0;" parent="1" vertex="1">
          <mxGeometry x="1061.75" y="541.98" width="15" height="15" as="geometry" />
        </mxCell>
        <mxCell id="FJFjf5WjBDoC7LGonaVu-12" value="RD" style="text;html=1;align=center;verticalAlign=middle;whiteSpace=wrap;rounded=0;points=[];fontSize=10;container=0;" parent="1" vertex="1">
          <mxGeometry x="1098.75" y="541.98" width="15" height="15" as="geometry" />
        </mxCell>
        <mxCell id="FJFjf5WjBDoC7LGonaVu-20" value="WD" style="text;html=1;align=left;verticalAlign=middle;whiteSpace=wrap;rounded=0;points=[];fontSize=10;container=0;" parent="1" vertex="1">
          <mxGeometry x="1061.75" y="582.98" width="15" height="15" as="geometry" />
        </mxCell>
        <mxCell id="FJFjf5WjBDoC7LGonaVu-22" value="WE" style="text;html=1;align=left;verticalAlign=middle;whiteSpace=wrap;rounded=0;points=[];fontSize=10;container=0;" parent="1" vertex="1">
          <mxGeometry x="1088.75" y="513.98" width="15" height="15" as="geometry" />
        </mxCell>
        <mxCell id="WKUppZH8_F1f0o47jSRY-1" value="" style="triangle;whiteSpace=wrap;html=1;rotation=90;fontColor=default;labelBorderColor=none;perimeterSpacing=0;strokeColor=default;rounded=0;shadow=0;points=[[0,0.5,0,0,0]];" parent="1" vertex="1">
          <mxGeometry x="1068.75" y="505" width="10" height="20" as="geometry" />
        </mxCell>
        <mxCell id="WKUppZH8_F1f0o47jSRY-2" value="CLK" style="text;html=1;align=center;verticalAlign=middle;whiteSpace=wrap;rounded=0;fontSize=10;points=[[0.5,1,0,0,0]];labelBackgroundColor=none;" parent="1" vertex="1">
          <mxGeometry x="355.1" y="489.98" width="30" height="15" as="geometry" />
        </mxCell>
        <mxCell id="WKUppZH8_F1f0o47jSRY-3" style="edgeStyle=orthogonalEdgeStyle;rounded=0;orthogonalLoop=1;jettySize=auto;html=1;exitX=0.5;exitY=1;exitDx=0;exitDy=0;exitPerimeter=0;entryX=0;entryY=0.5;entryDx=0;entryDy=0;entryPerimeter=0;endArrow=none;endFill=0;" parent="1" source="WKUppZH8_F1f0o47jSRY-2" target="is0OGJ1ILdpOx4lDECwO-24" edge="1">
          <mxGeometry relative="1" as="geometry">
            <mxPoint x="370.1" y="509.98" as="targetPoint" />
          </mxGeometry>
        </mxCell>
      </root>
    </mxGraphModel>
  </diagram>
</mxfile>
